<mxfile host="app.diagrams.net" modified="2022-09-16T01:47:07.197Z" agent="5.0 (Windows NT 10.0; Win64; x64) AppleWebKit/537.36 (KHTML, like Gecko) Chrome/105.0.0.0 Safari/537.36 Edg/105.0.1343.33" etag="F4uOrXwfAnzSL6slH_Hv" version="20.3.0" type="github">
  <diagram id="aBZBgUmuE_llpifwKUgU" name="PÃ¡gina-1">
    <mxGraphModel dx="1376" dy="786" grid="1" gridSize="5" guides="1" tooltips="1" connect="1" arrows="1" fold="1" page="1" pageScale="1" pageWidth="827" pageHeight="1169" math="0" shadow="0">
      <root>
        <mxCell id="0" />
        <mxCell id="1" parent="0" />
        <mxCell id="JKlWLX4_EkVpfZ8GCWLw-25" value="" style="rounded=0;whiteSpace=wrap;html=1;" vertex="1" parent="1">
          <mxGeometry x="560" y="45" width="430" height="335" as="geometry" />
        </mxCell>
        <mxCell id="JKlWLX4_EkVpfZ8GCWLw-26" value="&amp;nbsp;HOST&amp;nbsp;&amp;nbsp;" style="text;html=1;align=left;verticalAlign=middle;resizable=0;points=[];autosize=1;strokeColor=none;fillColor=none;fontStyle=1;labelBackgroundColor=default;fontSize=14;spacing=1;rounded=0;" vertex="1" parent="1">
          <mxGeometry x="575" y="27" width="70" height="30" as="geometry" />
        </mxCell>
        <mxCell id="JKlWLX4_EkVpfZ8GCWLw-28" value="" style="rounded=0;whiteSpace=wrap;html=1;" vertex="1" parent="1">
          <mxGeometry x="430" y="490" width="205" height="125" as="geometry" />
        </mxCell>
        <mxCell id="JKlWLX4_EkVpfZ8GCWLw-29" value="&amp;nbsp;PDV&amp;nbsp;" style="text;html=1;align=left;verticalAlign=middle;resizable=0;points=[];autosize=1;strokeColor=none;fillColor=none;fontStyle=1;labelBackgroundColor=default;fontSize=14;spacing=1;rounded=0;" vertex="1" parent="1">
          <mxGeometry x="445" y="472" width="55" height="30" as="geometry" />
        </mxCell>
        <mxCell id="JKlWLX4_EkVpfZ8GCWLw-31" value="" style="rounded=0;whiteSpace=wrap;html=1;" vertex="1" parent="1">
          <mxGeometry x="740" y="483" width="205" height="125" as="geometry" />
        </mxCell>
        <mxCell id="JKlWLX4_EkVpfZ8GCWLw-32" value="&amp;nbsp;eCOMMERCE" style="text;html=1;align=left;verticalAlign=middle;resizable=0;points=[];autosize=1;strokeColor=none;fillColor=none;fontStyle=1;labelBackgroundColor=default;fontSize=14;spacing=1;rounded=0;" vertex="1" parent="1">
          <mxGeometry x="755" y="465" width="115" height="30" as="geometry" />
        </mxCell>
        <mxCell id="JKlWLX4_EkVpfZ8GCWLw-35" value="" style="verticalLabelPosition=bottom;html=1;verticalAlign=top;align=center;strokeColor=none;fillColor=#00BEF2;shape=mxgraph.azure.mysql_database;fontSize=16;fontColor=#007FFF;" vertex="1" parent="1">
          <mxGeometry x="325" y="480" width="37.5" height="50" as="geometry" />
        </mxCell>
        <mxCell id="JKlWLX4_EkVpfZ8GCWLw-37" value="" style="shape=image;verticalLabelPosition=bottom;labelBackgroundColor=default;verticalAlign=top;aspect=fixed;imageAspect=0;image=data:image/png,iVBORw0KGgoAAAANSUhEUgAAAIAAAACACAYAAADDPmHLAAAACXBIWXMAAAsTAAALEwEAmpwYAAALxklEQVR4nO1de3BU1R1OZ2r7Rx8OZM+92XOXhDdCEQGpICpOp6JWpTBFQLGVVxsFRUH7R1VGRRBRMJaqIFRlhNhSKm+sYAAZhgChEQhEILv37iYhb8iLGStC6+35XZLwyN57djd37+8knG/mGxjI3pzz+75z9jx+556UFAkJCQkJCQkJCQkJCQkJCQkJCQkJCQkJCQkJCYl2heOUpoYoGW5Q31SDKgsNjWzQKdlvUHKU0dCpUsf+/BbY9HcD/q/pZ9Zbn2GfhWfAs7DrI8FBJIOkhTUyjom3XNdI2NAU000yk1TomrKWMTOclpaBXV8JhkhaWl/WUl9jDLotONcQmlLEeotXI/7UG7DjcE3hpN/v0zXfU0z0f3stun3vQPJCATITyoYdnw4Lw+9PZ6IvYd3719iC25KSc/AVFKKdumDHq8OgWFW7WcJT8g26wDEbQTnPxgyrwjS1D3b82i0qVfVHF0fvygV0QRPnBTBvsHPnn2LHs13BoOooFrhTAgjoCmEGEdLIo2ZKyvewYys0Lnb3ZBe2YMkj2SGnkDYI+ZXR1oIMukhJJlUaYL0CO97CIP/mlOvgu57Nq79DF8cjWnVlY4PCfv1+gB1/VBSn+/wizec9NwIlBwxFUbF1QEHT9M7zFTzRCMvWuubrha2HpzACyo3s+74cO/iikJmgKkh9g7B18QThgO9OVulG7KALyEbD77sDW5+kglVyAGv59QIEW1Q2hvy+wdg6JQXBLqQHE79SgCALTlJjUF9vbL1cha6qiogDvnCfHmaoZ1f0crQiJQbkN2Dr5gqCPXv+UNSpXuXcl8y8qZPRyxGNMEXsEOsETPy/YAczGsPdAmaDoZufffyxGeqqoZcnqgk08ia2fm2CQdUHRF3hq/jjbPPs2bPmli1bzPyHx6OXJ7oBlO9CfmUMto4JARI4WDdWix3EqEz3m/WFx1oMsH3lSuvf0MsVzQRUqYNFM2w94wJse4q8q1eWOc0Sv9kAwENjHkAvl60JNJKDrWlcMALKI9hBc2Ltgf2tDJDz3jLTCKjoZbNjiKoTsHWNCZD9IvIy76mJE1rEv9wAwIJ77kIvnx2tNZTuna7H1pcLUUf9zaz9YpetAXZmvYlePmcTkCxsfR0Bu1ps5Ppf7EDZseS+u68Q/2oDAI+NGI5eTgdegBVVbJ1twcT/QIAg2fLM5k1cA+x+dT56OZ3IeoEV2DpHBeTCW2ftBAhSNJbcOdw829DANcCWzZvN47cMRi+vLalyXsi8Qtb630EPjgNP/y27lfhRDcC4Z87z6OXlmGAJtt5XIJiWRljX9B/0wNgwMnSw2VhXF7MBtm7aZJ4c2B+93HaEWAt1Ytk6qydAYOxY/d7SqOLbGQCY++xs9HI7kpInsHVvgai7fcDIgL5mY01N3AbYun69WdS3F3r57Qi7hdi6W7COaAsQEDtWLX7dVnwnAwD3z3gcvfxOFOLsoXU+X4BgRA1Qn+5mY3lZwgb4dO1aMRNGWkhewdY/RcRMn2ZWvjTHUXyYFm5l0z4nExycOgm9HnbUNXIcVfyiQGcNOwh2tBI+9JCjAU6v+6e5e95cRwOInDACBA3QDAAnXrEDYMeKZ2c5t37G0vvvMQtvG+poACth5KFx6PWxZUB5BM0ArAAr0QMQjZDwceyoo/iwKdT88zv//JajAbat/FDchBGNvI9oAFKCHYBoLM+cym39ZY9ObPn5I6wn4PUCh0ffj14vGwOEUcSHFyJhV96OdZclfERj/dEC0+iSdukzAdX8fMUKRwPkLFsqbMJIaSDQ2XMD6H5yG3bFo/EU+77mtf7yWTNbfe5L9jleL3D07l+i1y8aI5oyzHMDWG/gFKDyV7N21w5H8RsiETPcI73V5/QMykb82Y4G2JW1GL1+0ahTMsl7A2jK69gVv5olvxrJbf1V8+fafj4vcxq3FygUMGFEp8oCBAOQDdgVv5pnNm10NkBNjRnp38f288He3cxPP/nE0QC7589Dr2crUmWd5wawXqqMXfHLWDzi1qgJH5ezetk73OfkPjPLuReAhJGfD0Kv71Xc67kBDEqOCVDxFp7OXuXc+uvrzeJhQ7jPOXFTP3PLxo2OJtjzwnPo9b2crDEWeG4ANv8sxq54M4uH3GQ21tU6GqBmzd9jft6el1907gU2bjBPDOiLXu8WA2CsBYh07Ktm2bvcwR8MEGN9XuGtt3AHg3ufeRq93pdITntuAFESQCM/622era52FP/Mjpy4nwtTPset4nXrzOANPdDrb5GSc9esAareWMht/aceHh/3cwvuHcntBfZPfwy9/mgGEOErIMymbY1lp5yXfY8cvnLZN1Zay8PLOQkj/xAkYQThK0CEQWDliy/wl31nzkj4+V+OH8vtBfIm/w7dACiDQOxpYCwJHw3hsBnu3iXxwGZQc1v2ak7CSLapIyeM4EwDkReCKmY/xW39sZDXwmNh/oQHUQ1goCwEYS4Fx5Dw4aUBtn34gaknMs5wixhLwU23eaBUuPwPU1wR3y0DAA/9Gi9hBG4v89wA7JdOwapw3f59whkAM2EEcjM9N4B1KydCZUvZyNwt8d00ALBg5C9QDBDW1KGeGwDSkDAqC6t6ohpg5+JFKAZASQkDeL0WUHLvXa6K77YBgF4njKAlhQIMj9PCT69fxxUU9vyrshbFzH1PTo+ZsAHEM8Duea94awBK/opmAC8PhhTfwU/4OPP59qSXA7p5RxNAwsiQgd6ZIKBMRDNASZdU6lVFa1Z/xG39iWz6xMtYNon2PP8nT2ICr5KFe5fQDABghTiZ7IpaCR+1zgkfCW/6xN3i+JtEkDBy0pOEEfIVqviWAaiyINkVrV76Nrf1t2XTJ17GskmUO9uLhBEyF1t/OB/QO5mVhISPxqoqR/HbuukTL60zBJxNIi8SRoR4QQSAjUQPJquSlQsXcFs/XPzglfjNzPv9FG4vcODxzCSWgezD1r0FoQCZmZRK9swwG0pLnQ1QXW31El4bINiLf4bgX2vWmKEop5BcISXTsXVvARwUTcZr4irmPMef97/7tufiNzM3hnWBg5N+6/rv1TXytVCviQO4/ZLocIZm1heddDZAjLn+ySKkhvPOEHy2epWpu/1uAUrewta7FYJa54CbiaLlTz/Jbf3x5Poni9wzBIz543/jpvjnUF8L4wRYlnSlkmw+D2f4eQaIJ9c/WYzlDIG7CSNkGbbOtoBXmbNCXmhrJcumTeaKn0iuf7LIO0MAPDzqvrb/LqqcF/7+IPh+amtFy2c8xt3EEaH1N7Pw9mHcjaRDY8e0+ffomrIIW18uTqSm/oQ5tQxblI5GnSoVcB0Ptr4xQafqQ9gB63gkD2LrGhdYgXfgB61jkHX927H1jBvWDSIaOYMdvPZOuDgyoqpdsfVMCCJfHdse2HR17GhsHdsEN2YF1zDfwNavzYAr0OFyAwGC2d6Ym39zynXY+rkC604hDzKHOgypohuKomLr5iqK0pXuMJdFD67ghBgJv9qXKIyAciOrYD12kAVmY5D6BmHrlFSEA74RrItrECDYYhFi4ie3Y+vjCfSA2l8uF18i3AweoWQgti6eAr7n2MCwCDv46KTECAVIT2w9UAAj3Wt8ipgLMyRsHVDxRUrK9w2NvMx6g/8JIIgntFZHqbIE1kiw4y8MDKqOEuHVc0mnNQAmY7HjLSTgWnRdIznoIiWv5W+HTTLsOAsP6A1YKynFFsw14alSjvIal/YMyH5hXwlZhgs5hmikynnWoy0uJOTH2PFst4C9cBgwMTN8gy5ozMKTb1mrX6Vrvl7Y8eswgCkjvJoOTsWgC2wv/DnG5XBGAjteHRZwJIoF+QmR1g+st6ZSMgPtZU3XKi4eTSfz4BZt74UnX8H5fNnNCwJdVZWwRsZBFwzLq+63cqWCTePWMmbKqVw7AHTHcKMm654ns7HDa/A+XSZkLhPyCBjEWnSCs4zWgM36u2H9n6bshZ+FN5/AhYzwjJL06zth10dCQkJCQkJCQkJCQkJCQkJCQkJCQkJCQkJCQkIiPvwf7ngCLIQRtdsAAAAASUVORK5CYII=;" vertex="1" parent="1">
          <mxGeometry x="35" y="465" width="128" height="128" as="geometry" />
        </mxCell>
        <mxCell id="JKlWLX4_EkVpfZ8GCWLw-38" value="" style="shape=image;verticalLabelPosition=bottom;labelBackgroundColor=default;verticalAlign=top;aspect=fixed;imageAspect=0;image=data:image/png,iVBORw0KGgoAAAANSUhEUgAAAIAAAACACAYAAADDPmHLAAAACXBIWXMAAAsTAAALEwEAmpwYAAAI6UlEQVR42u2be3AV1R3HTSBlQFoURZ1aOq0DVgm5b/MwkUcFlYyKiM4IoiilhaTN9A8pjmV0WmgrZkZUNGo7IlPfQUYzkHeIghrEB49apgGK0RsIhATSoCSQ1z39nfC7m72bu7tn78VJgt/PzHdy9+xv9949v++ePY/NBRcAAAAAAAAAAAAAAAAAAAAAAAAAAAAAAAAAAAAAAAAAAAAAAAAAAAAAAAAAAAAAAAAAAAAAAAAAAACGIPW+tIlb3f7pNZ7AMNTG9yfpl5PySDtIosrtE6Uub2OZy1tQ4fJN+cwdSEQtnX9JH01aQCojdcnEhyUNUOLyaiIzHCYzPEVmSP/c70flDeGkDydlk14nndIn3coABjN8RWZYXeny+VCjQ4Cg+7oESmo66VlSk1nS9apOzzQ1gMEMB8gMK8kMyajpwXe3/4K0knRQJelhNS78lTj48nolAxjMsJfM8CiZYSJqf+CTX+Mk6Xq1VVWLrm+/FRXX3+DYBGHJ/gKyMLAGqIsl+UdumyNEd7eQ7Ht6bTwGyEcWBtYAW2MxwDdvFIowZ5qPi7Lr0mI1QC6yYA3V00++SwO86jT5h6fOEKG2dqHn36v+EpMByl3ebKTY1gCFpNTvygB/dWqA1rUFwkhbfb0o9QYcG4CGkZOiXPDVpN+R5itW0K0cf4VFzDBSOmkpaSUpn//mkqZRx3SUIX4Bn/MShe+/i2Ov1JX9iMsWxZn8n5K6SG8oxF7B3xlNv+VrmmQ0wBInyT+UliW6m5q0xId6erTPu/7wsGMDfOTxXxjlQubpYh5QuPBNHJvRf59vOJUvIx21+S1Bwzn3c3mKwvdv59hpurKfcVlDnAbI5/N02j0K5PUr1nsF6aKwAbKdGODEo3/WEt7deEwE163Xtk/W1jodDh4zuRC9AdpIk2MxAG2PJFXxvjOkdaTZpImky+QdS0rjVmD9YDNAicszmo5vYclzPa5ogEOkmwzKJj1EauaYl8IGmOzEAJ37D2gJby14UWyd+kvR3d7XH/hkaa4TA3xiY4Am/ltL+mEMBniOy78mJTu88waBAXqbbXmO+dyCnTA+qkwMsN8i5m6OaQ4bYIxq8pty8vqa/s5O0TBjVu9UcN0rr2nlxz/91IkBCm0M8CypiD+/+X5ysrIB6PN4fnZ2k7wxVP6AGqDE7Uvk33CElERaxedbGqcBJnFMl74f0KpigNM12/s6faXl2lpA9YybRU9Hh7avZv59qkPAJxQMcDHpK97OdWCAPC7bFOPdN7AGONuxlcevMhi6drPHnxCHAe7jmN16A3xhl/yjd8+j2z6kJfnYg4sjFoOCb2/U9h3dUq1qgBw7A/B2KqmDn+MBRQOs57K8IWqALdx6jdeVvcvnnBWLAajczY+SEOkOvQFK7AxwqmiTluCOffv6rQa+n32bCPHMoBwZbJs9R2EOwDdLxQBc9nsuq9N6sNYGKOey24eaAeR3cpKKDOUzw714VQPQ58tJd5Je55HEqX4jK0rkC1bJb5iZLUK6Jr4l/0lxOGt6r97LyBIVGZm9OlpZpcUcerdIZQ7gWlUDlLlcCbT9DpcXbU7xJtgYoNrqbhnkBljHx96iLy92+xL4d4WidWpNDLCRy/5HWhN1KElJ/qOVAU6+9LJwSg91Eqtn3mxlgNB2t3+UqgG4/CLSl7xvmY0Bws3lvTaV/WPSF9Iwg8EAPDw9ffY6PYn8+/TDuVf4vP9QNMAjXHbcdB6B3/aJPvFz/VTR09oqYqHun69ajQAaLSohqgF4X4D7ArI5y7QwwJNcttqmwqMmirb/w+VuhaTt4NgbzoEBHuPjlvN2gUkdtpMutTMA1fNwnUG3Fru8w6IZYIqZAVoez+/LKD3ju5ubI3SmqSlCHSdOaOFdbW2iMmuqmQF2xGIAQw9fTniMMzHAbC7bV5ziTozBAB+qPkIopp5jJ8VjALrjR3AnTRp8HJ/ndvnMNqiMz71CpRNI21eRvuF9j0UzwM+jGiCQIbrq67WEnioutX0lTK4HtDcc0Y7Z/1yBmQHeitUApS6XjHlbN61Z0s8Abu8IHkPL8iUxGGAtlz+j0GETZyvYlxSfAbwL+ZjXbOJSw+cm/UBlFMDGETyUzIrYGfSlJVEye4zJbX5oeUSTfmzRb5TeCaxd81TfiKGlRZSnZkQbAq6O1QAcM4Z0kOM6TGYC5+n2Ly7WdRwVDBDgztbpaGsMHHOhrqX4u8p5zShOSZHH7OJjMq1i/3T2/Ds5doGKATYkJ+tvmqCcXzG2AoeNyT2ze4+WyM6DXyq/FCqbff308N6/rY5mgKXxGIDj/NxcCvPFIO9yUg/v38szavfIpp2nRZ8wSxT3msPrCAXcHMu7bxrPq/9XNzQdZ2IAOY8/10aj+Zwy/l9VCm9TU9yvOf7z0gkTVOcBxvJjU8ZslKbTG+DjiPf97l8UcffLoZ+Tt4KDG/omhtobGvotFZcbhjixGIBjc60MwDFywWczdxzNOqYfGI8r83gSuL/RaHKMbE7firYMrTOAiq7WTXnnKD4uZOvTqu98Ks4E3qi7IZboDVAY8b5f5ZbemT855y9HAfIlECcG2DZnbsTM4Z5HVkTOAbh811j8yPF8Z3jsKuKda1LD06Zz7dbu5YISaQqvi+fwXXSr/TKrL4kr90GekMrh4y61+K5RCnd+WPJ33RFuDRz0GTL5mMm8fQlv32Rz3HSOm6U3wMPGDqDK+oDV/wWU0L6yQKqoSM+M6AdQB7CuxhMYiXd9BhmU0BtJu5wsD1saoH/Pv4We/cve8wRGoLYHKUFveiIldiHp0Dk0QAclfs0Wt28sanjotAajeIr4ZBwGCFHiCyvdvqtQo0PXCJeRnjf+U6idAai5/0j+gyhq8PwxwrWkTbYzgS7vARri3bljQhoq7Tw1wnTSTqMBKPHNlPi8bW5/EmrpPOdrX1oiryAGyQCn5bQudfDGoGa+f63ByO1u/5WoCQAAAAAAAAAAAAAAAAAAAAAAAAAAAAAAAAAAAAAAAAAAAAAAAAAAAAAAAAAAAAAAAAAAAAAAAAAAAHDK/wGRpTjrw8ZhfQAAAABJRU5ErkJggg==;" vertex="1" parent="1">
          <mxGeometry x="1025" y="420" width="128" height="128" as="geometry" />
        </mxCell>
        <mxCell id="JKlWLX4_EkVpfZ8GCWLw-40" value="" style="shape=image;verticalLabelPosition=bottom;labelBackgroundColor=default;verticalAlign=top;aspect=fixed;imageAspect=0;image=data:image/png,iVBORw0KGgoAAAANSUhEUgAAAIAAAACACAYAAADDPmHLAAAACXBIWXMAAAsTAAALEwEAmpwYAAAJY0lEQVR4nO2ceYwcxRXGzRkgHAHCpYT7JgiFBAJB4TZgvDM9a9ACAoVTIIQIInHEDQtKANs71bMrQLCAEGAksDHCCCHMfTkYQQIICOIMCQKiHAgwO1XjP2B4X3XvyjPb09NVM9Nr4e8ntUbT01XvdderV/VeVc+0aYQQQgghhBBCCCGEEEIIIYQQQgghhBBCCCGEEEIIIYQQQgghhBBCCCGEEEIIIYQQQgghhJDvAUVldgmUObsY6luDUD8ZhObZQOmniqH5i5x/Uc69LudeKCp9s5w/aea8sa2nWmfSIWhEadhLpIGXSkPfJY1/Wn+5ttuhg/W1k67H+WK44mdiLOeLMSySz+eKqnrhjJH6xnnrTjqgT1V/Ig1/k/TmJwqqerw04A986kG5YtmcDm8hxjMya+jrLbutK+kiAwvrawVh9ffouQWlD+1m3YWyOdJ6EjGIafX6GueM1tfpL1d/GVRquw8O1tfspiziwaxwbBvp9Y8GZf0HGEIvZFiPoMzVMkd4TGS9L56hHh8v0DtMIcXhFftIIyyT3r9fr2VFXqah8e0hc4z7ei2bJBBUqgegB2Lcz0NeoVzbo7nxIwPQyzE05KEDibEzdgnjCuXlP85LJlx9kgHI8e+8dCBC3/Vfbgq3XxjW2+UtGyHiJA8gc4O89VitsY2gzOFTIXvgxvqGCAtF/r9kQvhhFHKae6ZCl9USZOrk4c+daj1WBhnEQqV2rG/5IKz1iRG9gjlGN/XKC4TEMhz/NajoQ3oqCL0Prv+oofoPeyrIkYE59U2QUvbVC+GreJVv5CEe0W3d8qBYqR5nh0LkSXoqSOnZPRfiSVAxZ0oD/s63/ID6crNu6pM3Pdd/YLC+Lno/snC+ddh8vzIzMG7L8bh1W/IZj+MzWq0TZKx7PUQlzAz2iEKl2i/j/xW+5YvlWkE8yDstwrh4Nq/fwXXeMkLzJ4znvuVJCtJAC2cO6e19ytqGUfrbtMafOOQ6uf7PPokd6Cdl7/XRkaQQpWDNsz5lpVdfmqnhJ3uDS33kITPpajzx8HZu2wulXoS/cm0l3r/wdnw8I+evxWw8i7zmuUqpMvZzKT8U7ZHQf4/T3cvsUIlwO8P9BKp2QRbZheHq/jLcXm9XWaF7qN/F0InQuhTqgxNlIc8vFw9nETBJmMyuvQxAyvWr6q9cZYqet/VXanu6lAnm1jeSh/2PdvdiG0WZB6ShBrAAhvkG5i1IiGFyLDo/Lccj/fPMzqnylPkvPvtCsxPKSH2LMcRObISRRpgxsnyLoFwL7N4IuaZvuLZrap2h+V/a79iLIc9mCeZcpbI+cVx//GYzrJGshTa7G479oqGwWMxZouSpaQKSwJ4An8ZfaTh4ylVmIdS/lZs4x6VMOwMoKX0yeguMoG1dMgexPTglUQYDQIPguiz5i1LFHCNG8EGaYaUZAMJbJM2yzK9sZxcvhHteWeEh195oN4ZkHfdT5gNirdu6yIUbkxue51ImzQBEj+nyQN5wWfNAb0WDBUO1vZJ+lw71f+xvQMNmrTOahJsXW/3eygCwZiPP8T1sy8sqy3ofpd8qhObocYXvcV3xE2XP6Kjxxw+J713kIpvnOhFsZQBILKHntHO/SUS9zrycNKaKLAPX7lwn5hpikEm/JRpANGf5m3Sig1xl9Q2t2Num2uXZIP27GNk2N2XN1d0wANeFHiRE5AE/7FKmlQHIcPJHeD+XuhrqVeZB9NxJ58UAfMJddKpWc7EkA0CGUJ7f/a5yJsqH+hY7ucTEpjBa38CtsJnXFQ8QmrKL3GjnkF7iUqaVAaD3+PT+cUqqNjPJG8EAfDJ3mANgzSLptyQDEP0XdLJGglVfO+/A7BDjgkth5Ne74wH0bBe5GKtdrT7JAODxRPZHLvU0M6Dq68s9fNJ83ncDC4w7qT6Q6AGU+cx3U25jRaG+FbNWtzIyBnbBALAh1EUueqw05u0uZZIMABO4wDP30VCPNFhzI4yHgV71tSjbbABIjWPJ3FdOA9ITLoY7cymD+BhKddT7Q/O569qDdbuir0uZJANALOw6lCTWLaFeqfLFjxrO5WAA/Td8tTlS675yGisv1wJMiFzLoSE68wD6Eg+Zs4threRSJskAZo1Ufyou9DVX+ZPqTmiwPAwAQ4x0oP/4ymkgjgsXu5bDGIgY2qvxlX4T5V1liryHisNfb+VSJnEOEKW/P8EeCFcdxrEhacKkLRcDmGafxRsu8X8qeOHDZym4OGR2FEv81DH0+wzlXGVBPyn7vGu5lCjgbqRNXeubKF/Wl4shX5VQby4GIOeucx0OVwZJtVJYK8aC9VUYCnwqil4Xw+JGJgNY5rvNHPqJ1V/pXK5lHkDmAdKLfF52sbuUQvPPJG+UlwGUKmYH6Xwf+7xfiXuWsq8WKvrX9gR6JBZCnDWOwcID8stIZzYvENnv0VvCp3SyoSPAwomH50hLBWNxCatnThVi/JVQVO7rokR5ORkAiJbizQLXsFOexyA8YLPwB/A+nktFSSBWR3oS7gWfrjmGJDDW+Wa90gwgDqeW4oFkeYjR0rK+3SaAWlyfpwHYuYzM38QY78iaE8CwIc/ypUl7LLFSJILmO2udA1ivyLoe30y71cA4oTMfufhWeXV4rnh38WvwGGnDRp4GAOKQvGIn5DJMtvKyuDe7PI1t/1gDaCFovowth/ko3ysKZf0beTB3+paP3jUwr7a7DtuukRa3W9fE4ORZlOUzhIvF6h96PRZR2taj9Hu+urYqm6XOoDy2L7K6yHBGnyaMU/bz7cYQpZe0XaHEpAYucVXZGh6t2JmlrqFfpzKLqnog8g0YxuB54Przkt8pGAqwtwG6Y8EIHcgp3MWNd9Ljugn0mAhVSH4gxvTJ1HVXB/sXNNdOpQ6rLzbVqO8oKHPeVIgXAzwX8vla+BQShxijWUOkroBdLjZG1aO9+jcS4oj0xMuQI8AGgl7KiV9LX+S7ZZz0EISGcZbvhF7Uj3pRf7f/gIp0ERuShWaO/Yu48R2lHYJ6UB+SK6tK6EnagJcOiqFRNj6P0opOS5J2WzX2EkR/MqlQX690JT3EJhxU9fjon0Lx+pG5L/6rt1Pjd9qn2098D8019vfours6+ZNJsoqCnhzPFc7A+3HWO8infYdAmcPZ0wkhhBBCCCGEEEIIIYQQQgghhBBCCCGEEEIIIYQQQgghhBBCCCGEEEIIIYQQQgghhBBCCEnhO7Ns6NCrGvLAAAAAAElFTkSuQmCC;" vertex="1" parent="1">
          <mxGeometry x="1000" y="560" width="128" height="128" as="geometry" />
        </mxCell>
        <mxCell id="JKlWLX4_EkVpfZ8GCWLw-44" value="" style="group" vertex="1" connectable="0" parent="1">
          <mxGeometry x="125" y="640" width="814.3199999999999" height="205" as="geometry" />
        </mxCell>
        <mxCell id="JKlWLX4_EkVpfZ8GCWLw-17" value="" style="rounded=0;whiteSpace=wrap;html=1;container=0;fillColor=#f5f5f5;fontColor=#333333;strokeColor=#666666;" vertex="1" parent="JKlWLX4_EkVpfZ8GCWLw-44">
          <mxGeometry width="814.32" height="205" as="geometry" />
        </mxCell>
        <mxCell id="JKlWLX4_EkVpfZ8GCWLw-18" value="&amp;nbsp;APP&amp;nbsp;" style="text;html=1;align=left;verticalAlign=middle;resizable=0;points=[];autosize=1;strokeColor=none;fillColor=none;fontStyle=1;labelBackgroundColor=none;fontSize=16;spacing=1;rounded=0;container=0;" vertex="1" parent="JKlWLX4_EkVpfZ8GCWLw-44">
          <mxGeometry x="4.31713375796177" width="60" height="35" as="geometry" />
        </mxCell>
        <mxCell id="JKlWLX4_EkVpfZ8GCWLw-36" value="" style="shape=image;verticalLabelPosition=bottom;labelBackgroundColor=default;verticalAlign=top;aspect=fixed;imageAspect=0;image=data:image/jpeg,/9j/4QzORXhpZgAATU0AKgAAAAgADAEAAAMAAAABA3AAAAEBAAMAAAABATkAAAECAAMAAAADAAAAngEGAAMAAAABAAIAAAESAAMAAAABAAEAAAEVAAMAAAABAAMAAAEaAAUAAAABAAAApAEbAAUAAAABAAAArAEoAAMAAAABAAIAAAExAAIAAAAeAAAAtAEyAAIAAAAUAAAA0odpAAQAAAABAAAA6AAAASAACAAIAAgACvyAAAAnEAAK/IAAACcQQWRvYmUgUGhvdG9zaG9wIENTNiAoV2luZG93cykAMjAxODowNzoyMiAxNjo1NDoxNAAAAAAEkAAABwAAAAQwMjIxoAEAAwAAAAH//wAAoAIABAAAAAEAAANwoAMABAAAAAEAAAE5AAAAAAAAAAYBAwADAAAAAQAGAAABGgAFAAAAAQAAAW4BGwAFAAAAAQAAAXYBKAADAAAAAQACAAACAQAEAAAAAQAAAX4CAgAEAAAAAQAAC0gAAAAAAAAASAAAAAEAAABIAAAAAf/Y/+0ADEFkb2JlX0NNAAL/7gAOQWRvYmUAZIAAAAAB/9sAhAAMCAgICQgMCQkMEQsKCxEVDwwMDxUYExMVExMYEQwMDAwMDBEMDAwMDAwMDAwMDAwMDAwMDAwMDAwMDAwMDAwMAQ0LCw0ODRAODhAUDg4OFBQODg4OFBEMDAwMDBERDAwMDAwMEQwMDAwMDAwMDAwMDAwMDAwMDAwMDAwMDAwMDAz/wAARCAA5AKADASIAAhEBAxEB/90ABAAK/8QBPwAAAQUBAQEBAQEAAAAAAAAAAwABAgQFBgcICQoLAQABBQEBAQEBAQAAAAAAAAABAAIDBAUGBwgJCgsQAAEEAQMCBAIFBwYIBQMMMwEAAhEDBCESMQVBUWETInGBMgYUkaGxQiMkFVLBYjM0coLRQwclklPw4fFjczUWorKDJkSTVGRFwqN0NhfSVeJl8rOEw9N14/NGJ5SkhbSVxNTk9KW1xdXl9VZmdoaWprbG1ub2N0dXZ3eHl6e3x9fn9xEAAgIBAgQEAwQFBgcHBgU1AQACEQMhMRIEQVFhcSITBTKBkRShsUIjwVLR8DMkYuFygpJDUxVjczTxJQYWorKDByY1wtJEk1SjF2RFVTZ0ZeLys4TD03Xj80aUpIW0lcTU5PSltcXV5fVWZnaGlqa2xtbm9ic3R1dnd4eXp7fH/9oADAMBAAIRAxEAPwD1VJJJJS3GpXO2/WTrLRY6ro7LGsLgxv22hr3gOrbXYz/Bencyyyz9Jcyz9BZ+j/m10RE6HheedOwumDHwanU4gyrjZSTktvBfY230GCl1H6B3t9P1P3FFlymFUAbBOp4duH/vm1yvLRyiRkZDhMR6I8fzRyTs+qPy+09z0zOdn4bMh9RxrTItx3Oa4scDtLd9Rcxzfz63/wCEq96trC+qNLaMXNYGsZ+uWjbX9EbAyj2bvds3Ve3ct1PxyMoCRFX0Yc+MY8koA8QiavZSSSScxqSWXlfWTo2K81vv9Sxujm1A2QfBzmAsb/nJsb6zdGyXhgv9J7tALmmsH+28en/01L93zcPF7c+HvwlZ7uO64435uqkkkol6kkkklKTSJjuqxcHP9CsuaXucbDOu1u3fsP5u5z62qb8HDezY6lhHjEOB/ea8e9r/APhPppDxWiROw28U6aRx4LOfvZSce+x76qbALbZO40lu+t1jm/u2bar7P9Gyy2389WPseBdVNLGNBHstpABaf3q7GJxiB1+xeAdCQRHu2klCr1BUz1YNm0by3jdHu2/2lNNQX//Q9VXNZn11oZmZOFgYluZfhCx+TJFbQ2o7bfT3b7LbN/6Opnp/pXvXSrgvrFgdZ6blZt/Tunfa/wBo5Ndwvbus2mva+iv0qnV21vblepdZY/8AV/5hMyGQAI7+qhxGm1yePFklOOSuLgvHxS9uHHf6Uv7j0/1e+smB9YMey/CbYz0SG2MtbtIJG4atL2O/zlUH1b6njXWfs7qjqMe2x9hqfUyzYbC57/Qf7dn00vqh0bJ6Tg5Pq47cd+XkOvbjB4f6THNY1tLrGN2ex7X7dn+DW9ut/cH+d/sQMBMDjux+7xQ/6KDk9rJMYSPbJ2yDHl2/vcUPS1OmdLqwMNuLvdc4OfY610BxdY42Pd7Po/SVr9Kzj9I3w4d/5Fyfdb+4P87/AGJbrf3B/nf7E4AAADStGGUpSkZSIkZGztuV22NdoDqOWnQj5Ll/rZ1m0WHpeM4saGg5T26E7tWUbvzW7Pfb/YZ/pFv59Zuw7mPpFg2OhvqGuTH0PWbtdV6n0HPXCdWL3dVzDZ9P1nT8tG/9BXvhuOM8xMhftx4o/wB6/wDuWrzkjHEOE/OTE/3Q1WtAbMhjG8k8DwGidzPYHghzHEtBB7j6TXMPvbz+ci4mQca+q9oaX0WC1gs+idNu137v/BvU8/Ldl5V2S9rGPyHNcWV6taGD02+/89/77ls3LiqvTXzX1/d4f+6c+hW+vZ2fqn1ixl7emXuLqrAfsxJ1Y5o3ej/xbmD9H/o/5tdcvNunlw6jhlv0vtFUf57V6Nvf/o3fe3/ySyPiWOMMsZAVxi5f3h+k3uTkZQIP6J08mahZbXUzfa9rGAgbnEASTtbqf3nFLe//AEbvvb/5JDLGZBcy9oLR/gXAEHX2vf8Amv8A5H/k1QJ7NsDvt1ppsc6rIdlv/mq7barD2ax/pO9U/wAlllLGu/cY/wBRaRc0NLiQGgSSeISDWiYAEmTHigfYMKf5hkDUDaInx2fRT5SBrpS2AAuyfoGuzKDX/ayIx8iwVtsOgDA0iqz+rdke2v8A4ylGycTCLLLrA2ggFz8hp9NzQOXm5u13+crLmtc0tcA5rhBB1BBVdnTsFjg5tDAWkFntENI4cxv0Wf2U02WUTjdjigRp6f0o9GWE+1+HQ+6fVdW0vkbTJGu5n5n9RHSSSYybJNVZ2f/R9PyqbbqHV1WuoeYi1oBIg7vzvb/X/kKo3p3UG8dQe6CDL2Akhrmvax21zGfRZ6b9jGPs9S7/AIL0dFJJTQb0/La9zznWOlwcAQIEFz9nt2+z9J/22yn/AK5SzvrB1DGvtrp6RkZVdbzWyysj3RWy8W+5uz0Xvf6DH+o/31Wep6f6P1NqxjbK3Vu1a8FpHkRC84+q/Tvq5fVQ3NqxTlWVbaqTZc1737vSBt3H0Wb3+39BWpcWITjKRMvSQPTHj+b/AAofuseXKYmMQI6gkcUuDb/Bm+h4l5ycWq8sdU61jXuqfo5hcA41WD82yudr0R72sEu76AcknyWB9U6Ps2Nn1U0tqBzrmtYwksYK21URvIa+z3Vfu/pFvMrDTuJ3PPLj+Rv7rUzJHhmYg3XVdilxQjMiuIfKwfUL2OZe0Gp4LXUmCHNIhzbfzX+3/B/Q/rrk/rZ0p2PkftClv6taGttjhj2gVMJ/drsY1jP+M/41dkovY17Sx4DmOBDmkSCDyCFJy2Y4MgmBenDIfvRRmh7kOEmusfCT5qy9zA2Bq0QNYH9Zzf3/ANxN6pLNpHaJB502+/8AfXX5X1O6Za4ux32Ys/mMIcz5MsDtv9h6bG+pvTa3B2RZbkx+Y4hrD8RUGv8A/BFqf6Q5ar9V/u16v+9/5zS+65brTzvRyfqp0t+VmtzniMbFJLCeH2xtAb/Jp+k//hf+uLtVGuuupja62hjGCGsaIAA/Na0KSzOZ5g58nERQGkY9otzDiGOPDudyVIWTQbq9rbHUvkEWsjcACHOaN7Xt/Sbdn0UVAzjktw7ziCcgMd6Q0PujSN3t3f1lXkaiSQTQ2G/0ZASNR0TpLAnIZYPsd2U6u6tjC+4PLmudfXj22enc39Fayt1jv5vZ/hP5tWLGDHffjZF+UcVoqsqsabHWBzzc2yr1aWutfX+iY/3fQ3/8WoBzF/o1XUy9Hh6v8FbxOuksVlebdjPFX2i6lt36uX2ux7TXs9xe8t9Wyv1t3peq31EJtma2pleU7Jrxm3WtuNe59rYDXYzDfW31raHy9/r1M/0VFn+ES+81+gdt/wBH935/k4VcXg76SwmWZJ2/bX5LKfQcS5ocLP58DGc8Y7fbkPo2ettb++rnSnWF94a65+INvoPyA4P3Hd67W+qG3Ppb+i2us/P9VGGcSkI8NX3+bbi1h+6oSuvF/9L1VJJJJSlyNX1W69gXtGDl4l2PWXmh2RSPVo3vN36B+y5z/c7/AEla65JT4Pc9XDw1pfucPDfq4fn/AMNg5j26HHxXrXBxcVfpfJ/gtLo/T39Owvs9tv2i51lltt23Zufa91zvZus2/T2/TV1JJRT4uOXF81ni8/8ABZYcPDHh+Whw+X+EpJJJNXKSSSSUpJJJJSkkkklKSSSSUpJJJJSkkkklP//Z/+0UhFBob3Rvc2hvcCAzLjAAOEJJTQQEAAAAAAAPHAFaAAMbJUccAgAAAgAAADhCSU0EJQAAAAAAEM3P+n2ox74JBXB2rq8Fw044QklNBDoAAAAAAOUAAAAQAAAAAQAAAAAAC3ByaW50T3V0cHV0AAAABQAAAABQc3RTYm9vbAEAAAAASW50ZWVudW0AAAAASW50ZQAAAABDbHJtAAAAD3ByaW50U2l4dGVlbkJpdGJvb2wAAAAAC3ByaW50ZXJOYW1lVEVYVAAAAAEAAAAAAA9wcmludFByb29mU2V0dXBPYmpjAAAADABQAHIAbwBvAGYAIABTAGUAdAB1AHAAAAAAAApwcm9vZlNldHVwAAAAAQAAAABCbHRuZW51bQAAAAxidWlsdGluUHJvb2YAAAAJcHJvb2ZDTVlLADhCSU0EOwAAAAACLQAAABAAAAABAAAAAAAScHJpbnRPdXRwdXRPcHRpb25zAAAAFwAAAABDcHRuYm9vbAAAAAAAQ2xicmJvb2wAAAAAAFJnc01ib29sAAAAAABDcm5DYm9vbAAAAAAAQ250Q2Jvb2wAAAAAAExibHNib29sAAAAAABOZ3R2Ym9vbAAAAAAARW1sRGJvb2wAAAAAAEludHJib29sAAAAAABCY2tnT2JqYwAAAAEAAAAAAABSR0JDAAAAAwAAAABSZCAgZG91YkBv4AAAAAAAAAAAAEdybiBkb3ViQG/gAAAAAAAAAAAAQmwgIGRvdWJAb+AAAAAAAAAAAABCcmRUVW50RiNSbHQAAAAAAAAAAAAAAABCbGQgVW50RiNSbHQAAAAAAAAAAAAAAABSc2x0VW50RiNQeGxAUgAAAAAAAAAAAAp2ZWN0b3JEYXRhYm9vbAEAAAAAUGdQc2VudW0AAAAAUGdQcwAAAABQZ1BDAAAAAExlZnRVbnRGI1JsdAAAAAAAAAAAAAAAAFRvcCBVbnRGI1JsdAAAAAAAAAAAAAAAAFNjbCBVbnRGI1ByY0BZAAAAAAAAAAAAEGNyb3BXaGVuUHJpbnRpbmdib29sAAAAAA5jcm9wUmVjdEJvdHRvbWxvbmcAAAAAAAAADGNyb3BSZWN0TGVmdGxvbmcAAAAAAAAADWNyb3BSZWN0UmlnaHRsb25nAAAAAAAAAAtjcm9wUmVjdFRvcGxvbmcAAAAAADhCSU0D7QAAAAAAEABIAAAAAQACAEgAAAABAAI4QklNBCYAAAAAAA4AAAAAAAAAAAAAP4AAADhCSU0D8gAAAAAACgAA////////AAA4QklNBA0AAAAAAAQAAAAeOEJJTQQZAAAAAAAEAAAAHjhCSU0D8wAAAAAACQAAAAAAAAAAAQA4QklNJxAAAAAAAAoAAQAAAAAAAAABOEJJTQP1AAAAAABIAC9mZgABAGxmZgAGAAAAAAABAC9mZgABAKGZmgAGAAAAAAABADIAAAABAFoAAAAGAAAAAAABADUAAAABAC0AAAAGAAAAAAABOEJJTQP4AAAAAABwAAD/////////////////////////////A+gAAAAA/////////////////////////////wPoAAAAAP////////////////////////////8D6AAAAAD/////////////////////////////A+gAADhCSU0ECAAAAAAAEAAAAAEAAAJAAAACQAAAAAA4QklNBB4AAAAAAAQAAAAAOEJJTQQaAAAAAANTAAAABgAAAAAAAAAAAAABOQAAA3AAAAAPAGkAbwBuAGkAYwAtAGYAcgBhAG0AZQB3AG8AcgBrAAAAAQAAAAAAAAAAAAAAAAAAAAAAAAABAAAAAAAAAAAAAANwAAABOQAAAAAAAAAAAAAAAAAAAAABAAAAAAAAAAAAAAAAAAAAAAAAABAAAAABAAAAAAAAbnVsbAAAAAIAAAAGYm91bmRzT2JqYwAAAAEAAAAAAABSY3QxAAAABAAAAABUb3AgbG9uZwAAAAAAAAAATGVmdGxvbmcAAAAAAAAAAEJ0b21sb25nAAABOQAAAABSZ2h0bG9uZwAAA3AAAAAGc2xpY2VzVmxMcwAAAAFPYmpjAAAAAQAAAAAABXNsaWNlAAAAEgAAAAdzbGljZUlEbG9uZwAAAAAAAAAHZ3JvdXBJRGxvbmcAAAAAAAAABm9yaWdpbmVudW0AAAAMRVNsaWNlT3JpZ2luAAAADWF1dG9HZW5lcmF0ZWQAAAAAVHlwZWVudW0AAAAKRVNsaWNlVHlwZQAAAABJbWcgAAAABmJvdW5kc09iamMAAAABAAAAAAAAUmN0MQAAAAQAAAAAVG9wIGxvbmcAAAAAAAAAAExlZnRsb25nAAAAAAAAAABCdG9tbG9uZwAAATkAAAAAUmdodGxvbmcAAANwAAAAA3VybFRFWFQAAAABAAAAAAAAbnVsbFRFWFQAAAABAAAAAAAATXNnZVRFWFQAAAABAAAAAAAGYWx0VGFnVEVYVAAAAAEAAAAAAA5jZWxsVGV4dElzSFRNTGJvb2wBAAAACGNlbGxUZXh0VEVYVAAAAAEAAAAAAAlob3J6QWxpZ25lbnVtAAAAD0VTbGljZUhvcnpBbGlnbgAAAAdkZWZhdWx0AAAACXZlcnRBbGlnbmVudW0AAAAPRVNsaWNlVmVydEFsaWduAAAAB2RlZmF1bHQAAAALYmdDb2xvclR5cGVlbnVtAAAAEUVTbGljZUJHQ29sb3JUeXBlAAAAAE5vbmUAAAAJdG9wT3V0c2V0bG9uZwAAAAAAAAAKbGVmdE91dHNldGxvbmcAAAAAAAAADGJvdHRvbU91dHNldGxvbmcAAAAAAAAAC3JpZ2h0T3V0c2V0bG9uZwAAAAAAOEJJTQQoAAAAAAAMAAAAAj/wAAAAAAAAOEJJTQQRAAAAAAABAQA4QklNBBQAAAAAAAQAAAAiOEJJTQQMAAAAAAtkAAAAAQAAAKAAAAA5AAAB4AAAauAAAAtIABgAAf/Y/+0ADEFkb2JlX0NNAAL/7gAOQWRvYmUAZIAAAAAB/9sAhAAMCAgICQgMCQkMEQsKCxEVDwwMDxUYExMVExMYEQwMDAwMDBEMDAwMDAwMDAwMDAwMDAwMDAwMDAwMDAwMDAwMAQ0LCw0ODRAODhAUDg4OFBQODg4OFBEMDAwMDBERDAwMDAwMEQwMDAwMDAwMDAwMDAwMDAwMDAwMDAwMDAwMDAz/wAARCAA5AKADASIAAhEBAxEB/90ABAAK/8QBPwAAAQUBAQEBAQEAAAAAAAAAAwABAgQFBgcICQoLAQABBQEBAQEBAQAAAAAAAAABAAIDBAUGBwgJCgsQAAEEAQMCBAIFBwYIBQMMMwEAAhEDBCESMQVBUWETInGBMgYUkaGxQiMkFVLBYjM0coLRQwclklPw4fFjczUWorKDJkSTVGRFwqN0NhfSVeJl8rOEw9N14/NGJ5SkhbSVxNTk9KW1xdXl9VZmdoaWprbG1ub2N0dXZ3eHl6e3x9fn9xEAAgIBAgQEAwQFBgcHBgU1AQACEQMhMRIEQVFhcSITBTKBkRShsUIjwVLR8DMkYuFygpJDUxVjczTxJQYWorKDByY1wtJEk1SjF2RFVTZ0ZeLys4TD03Xj80aUpIW0lcTU5PSltcXV5fVWZnaGlqa2xtbm9ic3R1dnd4eXp7fH/9oADAMBAAIRAxEAPwD1VJJJJS3GpXO2/WTrLRY6ro7LGsLgxv22hr3gOrbXYz/Bencyyyz9Jcyz9BZ+j/m10RE6HheedOwumDHwanU4gyrjZSTktvBfY230GCl1H6B3t9P1P3FFlymFUAbBOp4duH/vm1yvLRyiRkZDhMR6I8fzRyTs+qPy+09z0zOdn4bMh9RxrTItx3Oa4scDtLd9Rcxzfz63/wCEq96trC+qNLaMXNYGsZ+uWjbX9EbAyj2bvds3Ve3ct1PxyMoCRFX0Yc+MY8koA8QiavZSSSScxqSWXlfWTo2K81vv9Sxujm1A2QfBzmAsb/nJsb6zdGyXhgv9J7tALmmsH+28en/01L93zcPF7c+HvwlZ7uO64435uqkkkol6kkkklKTSJjuqxcHP9CsuaXucbDOu1u3fsP5u5z62qb8HDezY6lhHjEOB/ea8e9r/APhPppDxWiROw28U6aRx4LOfvZSce+x76qbALbZO40lu+t1jm/u2bar7P9Gyy2389WPseBdVNLGNBHstpABaf3q7GJxiB1+xeAdCQRHu2klCr1BUz1YNm0by3jdHu2/2lNNQX//Q9VXNZn11oZmZOFgYluZfhCx+TJFbQ2o7bfT3b7LbN/6Opnp/pXvXSrgvrFgdZ6blZt/Tunfa/wBo5Ndwvbus2mva+iv0qnV21vblepdZY/8AV/5hMyGQAI7+qhxGm1yePFklOOSuLgvHxS9uHHf6Uv7j0/1e+smB9YMey/CbYz0SG2MtbtIJG4atL2O/zlUH1b6njXWfs7qjqMe2x9hqfUyzYbC57/Qf7dn00vqh0bJ6Tg5Pq47cd+XkOvbjB4f6THNY1tLrGN2ex7X7dn+DW9ut/cH+d/sQMBMDjux+7xQ/6KDk9rJMYSPbJ2yDHl2/vcUPS1OmdLqwMNuLvdc4OfY610BxdY42Pd7Po/SVr9Kzj9I3w4d/5Fyfdb+4P87/AGJbrf3B/nf7E4AAADStGGUpSkZSIkZGztuV22NdoDqOWnQj5Ll/rZ1m0WHpeM4saGg5T26E7tWUbvzW7Pfb/YZ/pFv59Zuw7mPpFg2OhvqGuTH0PWbtdV6n0HPXCdWL3dVzDZ9P1nT8tG/9BXvhuOM8xMhftx4o/wB6/wDuWrzkjHEOE/OTE/3Q1WtAbMhjG8k8DwGidzPYHghzHEtBB7j6TXMPvbz+ci4mQca+q9oaX0WC1gs+idNu137v/BvU8/Ldl5V2S9rGPyHNcWV6taGD02+/89/77ls3LiqvTXzX1/d4f+6c+hW+vZ2fqn1ixl7emXuLqrAfsxJ1Y5o3ej/xbmD9H/o/5tdcvNunlw6jhlv0vtFUf57V6Nvf/o3fe3/ySyPiWOMMsZAVxi5f3h+k3uTkZQIP6J08mahZbXUzfa9rGAgbnEASTtbqf3nFLe//AEbvvb/5JDLGZBcy9oLR/gXAEHX2vf8Amv8A5H/k1QJ7NsDvt1ppsc6rIdlv/mq7barD2ax/pO9U/wAlllLGu/cY/wBRaRc0NLiQGgSSeISDWiYAEmTHigfYMKf5hkDUDaInx2fRT5SBrpS2AAuyfoGuzKDX/ayIx8iwVtsOgDA0iqz+rdke2v8A4ylGycTCLLLrA2ggFz8hp9NzQOXm5u13+crLmtc0tcA5rhBB1BBVdnTsFjg5tDAWkFntENI4cxv0Wf2U02WUTjdjigRp6f0o9GWE+1+HQ+6fVdW0vkbTJGu5n5n9RHSSSYybJNVZ2f/R9PyqbbqHV1WuoeYi1oBIg7vzvb/X/kKo3p3UG8dQe6CDL2Akhrmvax21zGfRZ6b9jGPs9S7/AIL0dFJJTQb0/La9zznWOlwcAQIEFz9nt2+z9J/22yn/AK5SzvrB1DGvtrp6RkZVdbzWyysj3RWy8W+5uz0Xvf6DH+o/31Wep6f6P1NqxjbK3Vu1a8FpHkRC84+q/Tvq5fVQ3NqxTlWVbaqTZc1737vSBt3H0Wb3+39BWpcWITjKRMvSQPTHj+b/AAofuseXKYmMQI6gkcUuDb/Bm+h4l5ycWq8sdU61jXuqfo5hcA41WD82yudr0R72sEu76AcknyWB9U6Ps2Nn1U0tqBzrmtYwksYK21URvIa+z3Vfu/pFvMrDTuJ3PPLj+Rv7rUzJHhmYg3XVdilxQjMiuIfKwfUL2OZe0Gp4LXUmCHNIhzbfzX+3/B/Q/rrk/rZ0p2PkftClv6taGttjhj2gVMJ/drsY1jP+M/41dkovY17Sx4DmOBDmkSCDyCFJy2Y4MgmBenDIfvRRmh7kOEmusfCT5qy9zA2Bq0QNYH9Zzf3/ANxN6pLNpHaJB502+/8AfXX5X1O6Za4ux32Ys/mMIcz5MsDtv9h6bG+pvTa3B2RZbkx+Y4hrD8RUGv8A/BFqf6Q5ar9V/u16v+9/5zS+65brTzvRyfqp0t+VmtzniMbFJLCeH2xtAb/Jp+k//hf+uLtVGuuupja62hjGCGsaIAA/Na0KSzOZ5g58nERQGkY9otzDiGOPDudyVIWTQbq9rbHUvkEWsjcACHOaN7Xt/Sbdn0UVAzjktw7ziCcgMd6Q0PujSN3t3f1lXkaiSQTQ2G/0ZASNR0TpLAnIZYPsd2U6u6tjC+4PLmudfXj22enc39Fayt1jv5vZ/hP5tWLGDHffjZF+UcVoqsqsabHWBzzc2yr1aWutfX+iY/3fQ3/8WoBzF/o1XUy9Hh6v8FbxOuksVlebdjPFX2i6lt36uX2ux7TXs9xe8t9Wyv1t3peq31EJtma2pleU7Jrxm3WtuNe59rYDXYzDfW31raHy9/r1M/0VFn+ES+81+gdt/wBH935/k4VcXg76SwmWZJ2/bX5LKfQcS5ocLP58DGc8Y7fbkPo2ettb++rnSnWF94a65+INvoPyA4P3Hd67W+qG3Ppb+i2us/P9VGGcSkI8NX3+bbi1h+6oSuvF/9L1VJJJJSlyNX1W69gXtGDl4l2PWXmh2RSPVo3vN36B+y5z/c7/AEla65JT4Pc9XDw1pfucPDfq4fn/AMNg5j26HHxXrXBxcVfpfJ/gtLo/T39Owvs9tv2i51lltt23Zufa91zvZus2/T2/TV1JJRT4uOXF81ni8/8ABZYcPDHh+Whw+X+EpJJJNXKSSSSUpJJJJSkkkklKSSSSUpJJJJSkkkklP//ZOEJJTQQhAAAAAABVAAAAAQEAAAAPAEEAZABvAGIAZQAgAFAAaABvAHQAbwBzAGgAbwBwAAAAEwBBAGQAbwBiAGUAIABQAGgAbwB0AG8AcwBoAG8AcAAgAEMAUwA2AAAAAQA4QklNBAYAAAAAAAcAAQAAAAEBAP/hEpNodHRwOi8vbnMuYWRvYmUuY29tL3hhcC8xLjAvADw/eHBhY2tldCBiZWdpbj0i77u/IiBpZD0iVzVNME1wQ2VoaUh6cmVTek5UY3prYzlkIj8+IDx4OnhtcG1ldGEgeG1sbnM6eD0iYWRvYmU6bnM6bWV0YS8iIHg6eG1wdGs9IkFkb2JlIFhNUCBDb3JlIDUuMy1jMDExIDY2LjE0NTY2MSwgMjAxMi8wMi8wNi0xNDo1NjoyNyAgICAgICAgIj4gPHJkZjpSREYgeG1sbnM6cmRmPSJodHRwOi8vd3d3LnczLm9yZy8xOTk5LzAyLzIyLXJkZi1zeW50YXgtbnMjIj4gPHJkZjpEZXNjcmlwdGlvbiByZGY6YWJvdXQ9IiIgeG1sbnM6eG1wPSJodHRwOi8vbnMuYWRvYmUuY29tL3hhcC8xLjAvIiB4bWxuczpkYz0iaHR0cDovL3B1cmwub3JnL2RjL2VsZW1lbnRzLzEuMS8iIHhtbG5zOnBob3Rvc2hvcD0iaHR0cDovL25zLmFkb2JlLmNvbS9waG90b3Nob3AvMS4wLyIgeG1sbnM6eG1wTU09Imh0dHA6Ly9ucy5hZG9iZS5jb20veGFwLzEuMC9tbS8iIHhtbG5zOnN0RXZ0PSJodHRwOi8vbnMuYWRvYmUuY29tL3hhcC8xLjAvc1R5cGUvUmVzb3VyY2VFdmVudCMiIHhtbG5zOnN0UmVmPSJodHRwOi8vbnMuYWRvYmUuY29tL3hhcC8xLjAvc1R5cGUvUmVzb3VyY2VSZWYjIiB4bXA6Q3JlYXRvclRvb2w9IkFkb2JlIFBob3Rvc2hvcCBDUzYgKFdpbmRvd3MpIiB4bXA6Q3JlYXRlRGF0ZT0iMjAxNi0wMy0yOVQxNToxNTozMyswNzowMCIgeG1wOk1vZGlmeURhdGU9IjIwMTgtMDctMjJUMTY6NTQ6MTQrMDc6MDAiIHhtcDpNZXRhZGF0YURhdGU9IjIwMTgtMDctMjJUMTY6NTQ6MTQrMDc6MDAiIGRjOmZvcm1hdD0iaW1hZ2UvanBlZyIgcGhvdG9zaG9wOkxlZ2FjeUlQVENEaWdlc3Q9IjAwMDAwMDAwMDAwMDAwMDAwMDAwMDAwMDAwMDAwMDAxIiBwaG90b3Nob3A6Q29sb3JNb2RlPSIzIiB4bXBNTTpJbnN0YW5jZUlEPSJ4bXAuaWlkOjlCQUI1REY3OTQ4REU4MTFCQ0I5RkM1MzQzQTAwRjcxIiB4bXBNTTpEb2N1bWVudElEPSJ4bXAuZGlkOjE0QTEzRTdENzZGNkU1MTFCN0NERUUxOUE0MUY2NjE0IiB4bXBNTTpPcmlnaW5hbERvY3VtZW50SUQ9InhtcC5kaWQ6MTRBMTNFN0Q3NkY2RTUxMUI3Q0RFRTE5QTQxRjY2MTQiPiA8eG1wTU06SGlzdG9yeT4gPHJkZjpTZXE+IDxyZGY6bGkgc3RFdnQ6YWN0aW9uPSJjcmVhdGVkIiBzdEV2dDppbnN0YW5jZUlEPSJ4bXAuaWlkOjE0QTEzRTdENzZGNkU1MTFCN0NERUUxOUE0MUY2NjE0IiBzdEV2dDp3aGVuPSIyMDE2LTAzLTI5VDE1OjE1OjMzKzA3OjAwIiBzdEV2dDpzb2Z0d2FyZUFnZW50PSJBZG9iZSBQaG90b3Nob3AgQ1M2IChXaW5kb3dzKSIvPiA8cmRmOmxpIHN0RXZ0OmFjdGlvbj0iY29udmVydGVkIiBzdEV2dDpwYXJhbWV0ZXJzPSJmcm9tIGltYWdlL3BuZyB0byBhcHBsaWNhdGlvbi92bmQuYWRvYmUucGhvdG9zaG9wIi8+IDxyZGY6bGkgc3RFdnQ6YWN0aW9uPSJzYXZlZCIgc3RFdnQ6aW5zdGFuY2VJRD0ieG1wLmlpZDoxNUExM0U3RDc2RjZFNTExQjdDREVFMTlBNDFGNjYxNCIgc3RFdnQ6d2hlbj0iMjAxNi0wMy0zMFQyMDo0Mjo0MSswNzowMCIgc3RFdnQ6c29mdHdhcmVBZ2VudD0iQWRvYmUgUGhvdG9zaG9wIENTNiAoV2luZG93cykiIHN0RXZ0OmNoYW5nZWQ9Ii8iLz4gPHJkZjpsaSBzdEV2dDphY3Rpb249InNhdmVkIiBzdEV2dDppbnN0YW5jZUlEPSJ4bXAuaWlkOjE2QTEzRTdENzZGNkU1MTFCN0NERUUxOUE0MUY2NjE0IiBzdEV2dDp3aGVuPSIyMDE2LTAzLTMwVDIwOjQzOjAyKzA3OjAwIiBzdEV2dDpzb2Z0d2FyZUFnZW50PSJBZG9iZSBQaG90b3Nob3AgQ1M2IChXaW5kb3dzKSIgc3RFdnQ6Y2hhbmdlZD0iLyIvPiA8cmRmOmxpIHN0RXZ0OmFjdGlvbj0iY29udmVydGVkIiBzdEV2dDpwYXJhbWV0ZXJzPSJmcm9tIGFwcGxpY2F0aW9uL3ZuZC5hZG9iZS5waG90b3Nob3AgdG8gaW1hZ2UvanBlZyIvPiA8cmRmOmxpIHN0RXZ0OmFjdGlvbj0iZGVyaXZlZCIgc3RFdnQ6cGFyYW1ldGVycz0iY29udmVydGVkIGZyb20gYXBwbGljYXRpb24vdm5kLmFkb2JlLnBob3Rvc2hvcCB0byBpbWFnZS9qcGVnIi8+IDxyZGY6bGkgc3RFdnQ6YWN0aW9uPSJzYXZlZCIgc3RFdnQ6aW5zdGFuY2VJRD0ieG1wLmlpZDoxN0ExM0U3RDc2RjZFNTExQjdDREVFMTlBNDFGNjYxNCIgc3RFdnQ6d2hlbj0iMjAxNi0wMy0zMFQyMDo0MzowMiswNzowMCIgc3RFdnQ6c29mdHdhcmVBZ2VudD0iQWRvYmUgUGhvdG9zaG9wIENTNiAoV2luZG93cykiIHN0RXZ0OmNoYW5nZWQ9Ii8iLz4gPHJkZjpsaSBzdEV2dDphY3Rpb249InNhdmVkIiBzdEV2dDppbnN0YW5jZUlEPSJ4bXAuaWlkOjlCQUI1REY3OTQ4REU4MTFCQ0I5RkM1MzQzQTAwRjcxIiBzdEV2dDp3aGVuPSIyMDE4LTA3LTIyVDE2OjU0OjE0KzA3OjAwIiBzdEV2dDpzb2Z0d2FyZUFnZW50PSJBZG9iZSBQaG90b3Nob3AgQ1M2IChXaW5kb3dzKSIgc3RFdnQ6Y2hhbmdlZD0iLyIvPiA8L3JkZjpTZXE+IDwveG1wTU06SGlzdG9yeT4gPHhtcE1NOkRlcml2ZWRGcm9tIHN0UmVmOmluc3RhbmNlSUQ9InhtcC5paWQ6MTZBMTNFN0Q3NkY2RTUxMUI3Q0RFRTE5QTQxRjY2MTQiIHN0UmVmOmRvY3VtZW50SUQ9InhtcC5kaWQ6MTRBMTNFN0Q3NkY2RTUxMUI3Q0RFRTE5QTQxRjY2MTQiIHN0UmVmOm9yaWdpbmFsRG9jdW1lbnRJRD0ieG1wLmRpZDoxNEExM0U3RDc2RjZFNTExQjdDREVFMTlBNDFGNjYxNCIvPiA8L3JkZjpEZXNjcmlwdGlvbj4gPC9yZGY6UkRGPiA8L3g6eG1wbWV0YT4gICAgICAgICAgICAgICAgICAgICAgICAgICAgICAgICAgICAgICAgICAgICAgICAgICAgICAgICAgICAgICAgICAgICAgICAgICAgICAgICAgICAgICAgICAgICAgICAgICAgICAgICAgICAgICAgICAgICAgICAgICAgICAgICAgICAgICAgICAgICAgICAgICAgICAgICAgICAgICAgICAgICAgICAgICAgICAgICAgICAgICAgICAgICAgICAgICAgICAgICAgICAgICAgICAgICAgICAgICAgICAgICAgICAgICAgICAgICAgICAgICAgICAgICAgICAgICAgICAgICAgICAgICAgICAgICAgICAgICAgICAgICAgICAgICAgICAgICAgICAgICAgICAgICAgICAgICAgICAgICAgICAgICAgICAgICAgICAgICAgICAgICAgICAgICAgICAgICAgICAgICAgICAgICAgICAgICAgICAgICAgICAgICAgICAgICAgICAgICAgICAgICAgICAgICAgICAgICAgICAgICAgICAgICAgICAgICAgICAgICAgICAgICAgICAgICAgICAgICAgICAgICAgICAgICAgICAgICAgICAgICAgICAgICAgICAgICAgICAgICAgICAgICAgICAgICAgICAgICAgICAgICAgICAgICAgICAgICAgICAgICAgICAgICAgICAgICAgICAgICAgICAgICAgICAgICAgICAgICAgICAgICAgICAgICAgICAgICAgICAgICAgICAgICAgICAgICAgICAgICAgICAgICAgICAgICAgICAgICAgICAgICAgICAgICAgICAgICAgICAgICAgICAgICAgICAgICAgICAgICAgICAgICAgICAgICAgICAgICAgICAgICAgICAgICAgICAgICAgICAgICAgICAgICAgICAgICAgICAgICAgICAgICAgICAgICAgICAgICAgICAgICAgICAgICAgICAgICAgICAgICAgICAgICAgICAgICAgICAgICAgICAgICAgICAgICAgICAgICAgICAgICAgICAgICAgICAgICAgICAgICAgICAgICAgICAgICAgICAgICAgICAgICAgICAgICAgICAgICAgICAgICAgICAgICAgICAgICAgICAgICAgICAgICAgICAgICAgICAgICAgICAgICAgICAgICAgICAgICAgICAgICAgICAgICAgICAgICAgICAgICAgICAgICAgICAgICAgICAgICAgICAgICAgICAgICAgICAgICAgICAgICAgICAgICAgICAgICAgICAgICAgICAgICAgICAgICAgICAgICAgICAgICAgICAgICAgICAgICAgICAgICAgICAgICAgICAgICAgICAgICAgICAgICAgICAgICAgICAgICAgICAgICAgICAgICAgICAgICAgICAgICAgICAgICAgICAgICAgICAgICAgICAgICAgICAgICAgICAgICAgICAgICAgICAgICAgICAgICAgICAgICAgICAgICAgICAgICAgICAgICAgICAgICAgICAgICAgICAgICAgICAgICAgICAgICAgICAgICAgICAgICAgICAgICAgICAgICAgICAgICAgICAgICAgICAgICAgICAgICAgICAgICAgICAgICAgICAgICAgICAgICAgICAgICAgICAgICAgICAgICAgICAgICAgICAgICAgICAgICAgICAgICAgICAgICAgICAgICAgICAgICAgICAgICAgICAgICAgICAgICAgICAgICAgICAgICAgICAgICAgICAgICAgICAgICAgICAgICAgICAgICAgICAgICAgICAgICAgICAgICAgICAgICAgICAgICAgICAgICAgICAgICAgICAgICAgICAgICAgICAgICAgICAgICAgICAgICAgICAgICAgICAgICAgICAgICAgICAgICAgICAgICAgICAgICAgICAgICAgICAgICAgICAgICAgICAgICAgICAgICAgICAgICAgICAgICAgICAgICAgICAgICAgICAgICAgICAgICAgICAgICAgICAgICAgICAgICAgICAgICAgICAgICAgICAgICAgICAgICAgICAgICAgICAgICAgICAgICAgICAgICAgICAgICAgICAgICAgICAgICAgICAgICAgICAgICAgICAgICAgICAgICAgICAgICAgICAgICAgICAgICAgICAgICAgICAgICAgICAgICAgICAgICAgICAgICAgICAgICAgICAgICAgICAgICAgICAgICAgICAgICAgICAgICAgICAgICAgICAgICAgICAgICAgICAgICAgICAgICAgICAgICAgICAgICAgICAgICAgICAgICAgICAgICAgICAgICAgICAgICAgICAgICAgICAgICAgICAgICAgICAgICAgICAgICAgICAgICAgICAgICAgICAgICAgICAgICAgICAgICAgICAgICAgICAgICAgICAgICAgICAgICAgICAgICAgICAgICAgICAgICAgICAgICAgICAgICAgICAgICAgICAgICAgICAgICAgICAgICAgICAgICAgICAgICAgICAgICAgICAgICAgICAgICAgICAgICAgICAgICAgICAgICA8P3hwYWNrZXQgZW5kPSJ3Ij8+/+4ADkFkb2JlAGSAAAAAAf/bAIQADAgICAkIDAkJDBELCgsRFQ8MDA8VGBMTFRMTGBEMDAwMDAwRDAwMDAwMDAwMDAwMDAwMDAwMDAwMDAwMDAwMDAENCwsNDg0QDg4QFA4ODhQUDg4ODhQRDAwMDAwREQwMDAwMDBEMDAwMDAwMDAwMDAwMDAwMDAwMDAwMDAwMDAwM/8AAEQgBOQNwAwEiAAIRAQMRAf/dAAQAN//EAT8AAAEFAQEBAQEBAAAAAAAAAAMAAQIEBQYHCAkKCwEAAQUBAQEBAQEAAAAAAAAAAQACAwQFBgcICQoLEAABBAEDAgQCBQcGCAUDDDMBAAIRAwQhEjEFQVFhEyJxgTIGFJGhsUIjJBVSwWIzNHKC0UMHJZJT8OHxY3M1FqKygyZEk1RkRcKjdDYX0lXiZfKzhMPTdePzRieUpIW0lcTU5PSltcXV5fVWZnaGlqa2xtbm9jdHV2d3h5ent8fX5/cRAAICAQIEBAMEBQYHBwYFNQEAAhEDITESBEFRYXEiEwUygZEUobFCI8FS0fAzJGLhcoKSQ1MVY3M08SUGFqKygwcmNcLSRJNUoxdkRVU2dGXi8rOEw9N14/NGlKSFtJXE1OT0pbXF1eX1VmZ2hpamtsbW5vYnN0dXZ3eHl6e3x//aAAwDAQACEQMRAD8A9VSSSSUpJJJJSkkkklKSSSSUpJJJJSkkkklKSSSSUpJJJJSkkkklKSSSSUpJJJJSkkkklKSSSSUpJJJJSkkkklKSSSSUpJJJJSkkkklKSSSSUpJJJJSkkkklKSSSSUpJJJJSkkkklKSSSSUpJJJJSkkkklKSSSSUpJJJJSkkkklKSSSSUpJJJJSkkkklKSSSSUpJJJJSkkkklKSSSSUpJJJJSkkkklKSSSSUpJJJJSkkkklKSSSSUpJJJJSkkkklKSSSSUpJJJJSkkkklKSSSSUpJJJJSkkkklKSSSSUpJJJJSkkkklKSSSSU//Q9VSSSSUpJJJJSkkkklKSSSSUpJJJJSkkkklKSSSSUpJJJJSxIAk6AKtidU6Znb/sWXRlel/OejYyzb/X9NztnCPd/NP/AKp/IvBfqh1/6ydHt6iOh9P+3i8gXn0rLNgBft/mCNu7d+ekp9vZ13ollNt7OoYr6aCBda26ssYXaM9V4ftr3/m7kL/nP9Wv/LbC/wDYir/0ovL/APFd0XF6/wBL690zOL2U3uxnPNZDXAtNz/buD/zlR6R9Sek5v1+z/q5c+4YWK2w1ua5os9uzbudsLfz/ANxJT7LZ1npFdtVNmdjstyA11FbrWB1gf/NuqaXbrPU/M2KWb1TpnT9n2/LoxPUnZ69jK90fS2eq5u7bK8g/xk9Hvf8AWnpfR+mNdZbXhVU4zS4Bx9P1Nnv9rd+1i5v6x5/1h61TT1fq8+nUfsNRILZfU3dd+jP5+v6d/wDpElP0E7q3S2ZTMN+ZQ3KtANdBtYLHB30CyrdvfvVteQdaupo/xn9FuvsbVUyjFL7HkNa0bHe5z3e1q9Vw+p9Nzy8YOXTlGuN/o2Ns2zO3f6bnbd21JTaSSSSUpJJJJSkkkklKSSSSUpJJJJSkkkklKSSSSUpJJJJSkkkklKSSSSUpJJJJSkkkklKSSSSUpJJJJSkkkklKSSSSUpJJJJSkkkklKSSSSUpJJJJSkkkklKSSSSUpJJJJSkkkklKSSSSUpJJJJSkkkklKSSSSUpJJJJSkkkklKSSSSUpJJJJSkkkklKSSSSUpJJJJSkkkklKSSSSUpJJJJSkkkklKSSSSUpJJJJSkkkklKSSSSU//0fVUkkklKSSSSUpJJJJSkkkklKSSSSUpJJJJSkkkklKSSSSUxc0OaWngiD81z/1Y+pXTvq0cs4d11v22PU9UtMRu+hsYz99ZP1vys3H6wW1X21sdUxwa17gPzm8A/wAlYn7T6l/3Lu/7cd/5JVZ84IyMTE+k1u6eH4VLJjjkGQDjAlVPZ/VT6l9O+qxyjhXXXfbC02esWmNm/bs9NjP9Ilg/Uvp2D9Zsn6yV3XOysoOD6nFvpjftnbDA/wDM/fXGftPqX/cu7/tx3/kkv2n1L/uXd/247/ySb9+j+4ftX/6Gn/nY/Y9r1D6n4Gf9ZMT6xW3WtysIBtdbS30zt3/Tlhf/AIT99Q+s/wBSelfWTHox8h1mLXj2WWtGPtbL7dbXP3sf9J3vXINzuquEjKuj/jHf+SS+29W/7k3f9uO/8kh9/h+6ftV/oaf+dj9j0HX/APFl0br2czNysnJrsZTXQG1lgG2sbWu99b/crv1S+pHTfqo7Kdg3XXfbAwP9YtMenv27PTZX/pVyX23q3/cm7/tx3/kkzuodUbG7KuE/8I7/AMkl9/h+6ftV/oaf+dj9j6iks76vGx3RcR1r3Pe5m4ucZJ3Eu+kVoq5E8UQdrFuXkjwTlC74SY3/AHVJJJIrVJJJJKUkkkkpSSSSSlJJJJKUkkkkpSSSSSlJJJJKUkkkkpSSSSSlJJJJKUkkkkpSSSSSlJJJJKUkkkkpSSSSSlJJJJKUkkkkpSSSSSlJJJJKUkkkkpSSSSSlJJJJKUkkkkpSSSSSlJJJJKUkhMyaX3WUMdNtUGxuum7VqKkgEHY3008FJJJJJUkmJAEnQKhf1zp1Ltgs9az9yobz+Ht/6SVrJ5IQFzkI/wB406CSyj1nLdrT06948XQz8sobut9SrE2dJv29ywhx/wA0BIa7LPvOLvLz4MlfbwuyksJv1w6S2wVZouwLDwMistH+c3ctmjIoyKhdj2Nuqd9F7CHNP9pqdKEoiyCAeq+GSE/lkCkSSSTV6kkkklKSSVDP630vp+mVkNY//Rj3P/7bZucjGMpGogyPYaoJAFkgebfSWF/zoNv9C6dl5DTw/Ztaf7XuS/bnWuR0a3b/AMYJ+7apPYydQB/elGP/AHSY+rb+DupLCP1nsp/pnTMuho5cGb2j+17VdwOu9K6gduNkNNn+id7X/wCY+N39lNljmNSNO49Q/wCayHBlEeLhPD+8PVH7YugkkkmMakkkklKSSSSUpJJJJSkkkklKSSSSU//S9VSSSSUpJJJJSkkkklKSSSSUpJJJJSkkkklKSSSSUpJJJJTxP16rjqGPZ+/UR/mu/wDM1z2NjX5d7cfHbvtfO1sgTA3cldR9fa9cO3+u2f8ANcsHoT9nWMR3jYB/nAtWXniDzBB2Mo/856Pk8hHIRlHWUITq+8OKk3/Njrf/AHHH+e3+9N/zY63/ANxx/nt/vXcXW101PusO2usFzzzAHKzv+c3Q/wDuT/0Hf+RViXK4I/NMx85RDRh8S52YJhijOv3YZJf904NP1Z62Kx+rj/Pb/ep/82etf9xx/nt/vXSU/Wbonpj9Y/6Lv/Iqf/Ofon/cj/ou/wDIqM8tyv8Anf8AnQX/AH3n/wDxP/43k/i8nk9D6pi0OvvpDKmfSduaYkx2Kysk8fArsOv9d6bl9Msx8a7fY8t9sEaBwc76QXHXgueGjkiB81WzQxwyAY5cYq7vi1/wW/yeXNkgZZoe3LiIqpQ9P+E+mdJr9LpeJX3bSwH47RKtodLdlNbRoGtA+4Ii2IigB2DzUzcpHuSVJJJIrVJJJJKUkkkkpSSSSSlJJJJKUkkkkpSSSSSlJJJJKUkkkkpSSSSSlJJJJKUkkkkpSSSSSlJJJJKUkkkkpSSSSSlJJJJKUkkkkpSSSSSlJJJJKUkkkkpSSSSSlJJJJKUkkkkpSSSSSlJJJJKcvC/5b6h/Vq/6lair1YdVWVdlNJ9S8NDwePaNo2qwgGPDAwiQes5y+k5ynFSrZ2dRhUm24+TGD6Tj+61FuuroqfdYdrGAucfILM6djvzr/wBqZjef6LUeGM7Wf13JE9Aty5JAjHj/AJyff5ccOuSSzMLO6nFvUHGjHOrMRhgkf8M7/X/ra0sfExsZu2iptY8hqf6zvpORkkgE48EIHi+aZ3yS1mf+9/uqSSSRZUd+PRkVmrIrbbW7lj2hwP8AZcuczPqjdh2nO+rGQen5XLsZxLse3+S+t270/wDX+bXTpKTHlnjPpOh3ifVCX96K2UIy3GvQ/pD6uF9X/rK3qVlnT8+r7D1fH0vxXfnR/haD+fX+d/5Nn6RbqxfrH0D9pVsy8R3odVw/fi5DdDI19Gw/6N/+v+ER/q/1cdVwRa9vp5VR9PKp4LbG/S0P5r0/LCEo+7jHCLrJj/zcv6v+rn+itjMiXty3IuEv3x/30XTSSWf17Ndg9IyclhixrNtZ8HOPpsd/Zc5QxiZSERvIgD6ryaFudm5/UOr5tnS+kP8AQooO3Mzu4Peqn+Ur3Tvq/wBL6eA6uoWX8uvt97yf3tzvof2FPoXT2dP6XRjgQ8tD7T3L3avJ/wCoWgpcmWrx4/TjGmm+T+tNZDHrxz1mf+Z/VipJJJQsilndS6D0zqLSb6g2782+v22A9jvH0v7a0UkQSDYNLoTlA8UJGJHUPPYefndHza+mdWs9fHvO3DzjyT/ocj+X/r/xfQqj1jptfU+nXYj43PE1O/deP5t/+cg/VvqFmf0iqy7+kVTTeDzvrOx27+U76aMjevXqz5QMmL3gBGUSIZhHSNy+TJGP9fhlxuokkkmtZSSSSSlJJJJKUkkkkpSSSSSn/9P1VJJJJSkkkklKSSSSUpJJJJSkkkklKSSSSUpJJJJSkkkklPM/Xtk4GO/922J+LT/cuQwH+nnY7/3bWH/pBdv9dGbuil3dlrD+Vv8A35cE121zXfukH7is3m9M1+AL0Hwz1cpw+M4/b/6M+k5dRtxr6gJL2PaB5kEBcOPq31yP6Kf85v8A5JdX/wA4+iHU5TZ76O/8il/zj6J/3Kb9zv8AyKs5o4MpBlkArtKLn8rk5zlxIQwSPFRPFDJ0/uvO0/VzrYrE4x/zm/8AklP/AJuda/7jH/Ob/wCSXUU/WTonpj9ab9zv/Iq5h9Rws7ecS0WiuA+ARE8fSChHKcvI0MhJPQSgzS+I85EcUsIiO8oZIj83hMvpefhMa/Kq9NrztaZBk8/mlUam+pn0s/esY373Bdb9dX/o8Svxc933BoXM9JZ6vW8VnY3N/DX+CrTxRhn9uNkDh3/rN/l88snLHNMAHhmfT/VfS+E6SS2HmlJJJJKUkkkkpSSSSSlJJJJKUkkkkpSSSSSlJJJJKUkkkkpSSSSSlJJJnOa1pc4hrRqSdAElLpLJy/rN0nGlosN7x+bUN3/T9tf/AEllX/XSwyMfGA8DY4n/AKLNv/VqxDk889RAgd5en/pMUs+KO8h9PU9WkuIs+tvV3/RdXX/VZ/5Pehf85+t/9yP+gz/yCmHwzP3gPqf+9YzzmPtL7HvElwzPrV1lvNjX/wBZjf8Avm1W6frnlt/n8euwfyCWH/peohL4dzA24ZeR/wC+4Ujm8R7jzD1ySw8X629MuIbcH47j3cNzf85k/wDULYpyKMhnqUWNtZ+80gj8FWyYcmP54GPnt9rNHJCXyyBSJJJKNcpJJJJSkkkklKSSSSUpJJJJSkkkklKSSSSUpJJJJSkkkklKSSSSUpJJJJSkkkklMQ5pcWgguHInUKSy8L/lzqH9Wr/qVqIArMWTjiTVVKcP/C5cDk9WJy8vH6W0+1/6bIj/AEbeG/23LVADQGgQBoAPBZHRz9q6l1HOOobZ9nrPgK/p/wCd7FsI1RY8A4jPKd5yIH+zx+iH/f8A+GpJJJJnUkkkkpSSSSSlLnsln7J+stOWz24vVf0OQOwuH8zZ/b/9KroVk/WjGOR0W9zf5zHi+t3cGs7i4f8AW96lwSqfCflyeiX+F1/wZepZkhxAV80SJR8x/wB86yxPrgP8iPP5rbKy74bgtTByRlYdGSP8NW18f1huQ+qYQz+n34Z0NrCGk8B30q3f56GM8GSJP6Mhf0ZYVxDi2scXk2gZAKdZH1c6n9rw/st/szsP9FkVu+lLfY2z+1/1a10yUTGRB6JyQMJmEtwf5FSSSSCxSSSSSlLC+r1dtHUutY5Y5tX2kXVkggH1RufsP530VupJMkMnDDJCr9wAf3eGXHxKSSSSY1JJJJKUkkkkpSSSSSlJJJJKf//U9VSSSSUpJJJJSkkkklKSSSSUpJJJJSkkkklKSSSSUpJJJJTk/Wmvf0LK/khrvuc0rzk8FendbZ6nSMxnc0vI+Q3LzHss7nh64n+q7vwaX6mY7Tv7YvbYn1d6Jdi0WuxyTYxrid7uSBPdcfm1NpzL6W6Nrsc1o8gfau46FlUXdMxWNsa61lYa9gI3AjTVqLldJ6blknIx2OceXgbXf57YU2Tl45McTj4Ymr23/wAVrYOeny+bJHMZ5I2YgE3w8Mugm8LT/Nhdh9S2RiZD/wB60D7mj+9WcP6r9GqaHekbOYFjiQPlotWurHxq9tbWU1jWAA0BM5flJ48nuSI0vQeKed+IY82M48cZeojWWmzy310fOXjM8K3H7zH/AH1ZH1ZZ6n1gx++1z3fc1yu/WnJqyOpg0vbYxlYbuaZEy4kaIP1LZv63u/cqe77y1v8A35Q/NzZ/vj/mtvGDD4cb0PtS/wCe9kOosY8V5jDivJhrnGa3f1Lx7P7Fnp2K4oua17S14Dmu0IOoIVT7BZj64FnpD/QPl1R/qt+nR/1r9H/wS0vUP63/AEnC9Ev6h+2H/fRbqSpt6i2twrzWHFedA5xmpx/kX/R/sW+lZ/IVxEEHZEoyjuN9j0PkVJJJIrVJJJJKUkkkkpSSSSSlJJJJKUkkkkpSSSSSlJiQASTAHJKDl5ePh0OvyHhlbe/cn91o/OcuL6x9YMrqLjWyacXtWOXedp/76rHL8rPOdNIjeZYsuaOMa6y6Rdvqf1sxscmrCAyLRobD/Nj/ANKLmM3qednOnJtc8dmcNHwYPaqyS2MPK4sQ9Mbl+/L5mhkzTnudP3RspJJJTsSkkkklKSSSSUpEoyb8awWUWOqePzmmENJAgEURaQa2el6b9b3tivqLdw49Zgg/26//ACC6ejIpyahdQ8WVu4c0yvM1a6f1PL6db6mO+AfpsOrXf1mqjzHw+E7li9Ev3f0Jf962cXNSjpP1Dv8ApPoySz+k9Yxup1bq/Zc0fpKTyPMfvMWgsmcJQkYyHDIdG9GQkAQbBUkkkmpUkkkkpSSSSSlJJJJKUkkkkpSSSSSlJJJJKUkkkkpSSSSSlJJJJKcrBdPXeojwbV/1K03uDGOeeGgk/JY/Tn7vrJ1Vv7raP+pWnnz9hyI59J8f5pR4aIHev+cwYNIS/v5f/SknL+p3u6HXcfpX2WWOPnvcz/vi21hfUl4f9WMJw8Hz/wBuWLdT8wrJMdpEfYV+AVixj+rH8lJJJKNkUkkkkpSSSSSlIWTULse2p2osY5pHkRtRUx4KQ0KnI+qVhs6BjTqWb2f5r3ALYWH9To/YdZH+ks/6ty3E/L/OT/vFl5iIjmyAdJy/NyOrdBGXe3PwrTh9RrHtubw6Pzbm/nf6/TVQfWDqnTvZ1vBftH/avGG+sj95zf8AB/6/o10SSHHpRF1t3XR5j0iGWAyxj8t+nJD+5k/75zsP6w9FzI9DLrLjwxx2O/zLdjloAgiQZB7qhmdB6PmycnErc48vA2u/z69r1nH6n1Und0zPysE8hrXlzP8Att0f9Wga6LuDlZbZJ4j2yR9yP+Pj9X/jL0KS570Prphfzd+N1Osfm2tNVh+BZ+j/AM5yb/na7DO3rfT7+n6wbgPWp/7dq/8AIppkBvor7nkl/NShm8MUvX/4VPgzf+NvRJKvh5+HnUi/DuZfWfzmGYPg791ysIteUTEkSBBG4OhUkkkkhSSSSSlJJJJKUkkkkpSSSSSn/9X1VJJJJSkkkklKSSSSUpJJJJSklCy2upu6xwYPEmFn5HXsOn6E2dp+i3/Ockp00lQo6zhWwHONTj2fx/nfRV5rmuG5pDge41CSl0kkklKSSSSUiymepjWs/eY4a+YXlA4XrZAIIPB5WBl/UvpV5LqS/Hcdfadzf818qrzWCWThMa9Nuj8N5zHg445LqfDRAv5XhBoZGh8RoVexuu9WxYFeQ5zR+ZZ7x/0/ctTL+pHUqpONYzIb4fQd9zpb/wBNY2V0zqGHP2nHsrA/OIlv+e2WqkYZsetSj4j+IdgZeV5gVxQyf1Zb/wCLN2D9bOr20Naw109i5jdT/n7ln35eVkndkXPtP8pxI/zfoqlU650VVNL3dg0FxPyC0sb6tdcy4Pomtp/OtO0f5v0/+gmH3sp3lP8AFHBy2DWseLx0jJpOsY0HUT4Lc+ojJzsmz92oD/Od/wCYKzifURog5mST4sqED/Pf/wCQW/03o2B0wOGIwtdZG97iXExxz8Va5blckZxlIUB9rS534hglhnixyM5T0sD07/1m8kkktBxGLmte0tcA5rtCDqCFU+wWY+uBZ6I/0D5dUf6rfp0f9ad6f/BK6kgYgrozlHbY7g6x+xpt6iK3CvNYcV50DnGanH+Rf9H+zb6VitpnNa5pa4BzToQdQQqn2CzH1wLPRH+gf7qT/Vb9On/rLtn/AASHqH9b/pJ9Ev6h+2H/AH0W6kqbeoCtwrzWHFedA4manH+Rfo3+zb6Vitogg7IlGUdxvseh8iukkkitUkkkkpSSSSSlJJJJKUg5eXRh478i922tg18SezW/ynIpIAJJgDUlcL9YOsO6jlbKz+q0mKx+8e9p/wC+qxyvLnPOtojWZYs2UY43+kflDX6t1bI6nkepYdtbdKquzR/5NUkkluxjGERGIqI2DmSkZEkmyVJJJJyFJJJJKUkkkkpSSSSSlJJJJKUkkkkpJj5N2Lc2+hxZYwyHBd30brFXU8fdoy9mltf/AH9v8hy4BHwc2/ByWZNJhzOR2cPzmO/rKtzfKxzR00yR+WX/AHJZsGY45f1TuP2vpKSBhZlObjMyaTLLBx3B/Oa7+qjrCIIJBFEaEOkCCLHVSSSSCVJJJJKUkkkkpSSSSSlJJJJKUkkkkpSSSSSlJJJJKUkkkkp57pD5+tvW2+DMf/qVvuaHNLTwRB+a5vop/wCzTr48GY34sXTKbOKnH+5jP+Njix4h6T/en/05PM/4vnkfV/7I7+cwsi6iweDg/wBT/wBGLplzHQgenfWnrHTHaV5Zbn447Hf7cj/wR3/ga6dHm/56UhtkrKP+qjjViPoA/duH+LopJJJQMikkkklKSSSSUpAzbhj4d954qre8/wBlpcjrE+t2Q+vpDsarW/OezGqA7l593/QCMRZAZMEPcywh+9IA+X6ST6qUmr6v4gdy5rn/AOe5z2/9Fy10LFoZjY1WOz6NLGsb8Gjas93Ushv1lb0w7fs7sU3jT3bw/Z9L+qjI8Uie5JXSBzZcs4/18p/u/M6qSSSawqSSSSUpM5rXNLXAFp0IOoITpJKeY6p9Vn41juqfVt32POZ7nY7dKrgP8Ga/oN3f9t/+fVp/V7rdfWsAZAb6V9bjXk0nllg+kNfzXfmrUXM4tY6d9ecimv209UxhkFo49Vjtrv8A0Y//AK4oyOCQI+WRqQ/KTejkPM4ZwyerLhj7mLIfn4IfzmGcv048Hrx/uPTJJJKRoqSSSSUpJJJJSkkkklKSSSSU/wD/1vVUkkklKSSSSUpN8U6YiRCSmhkdawqQdrvVI/d4+byue6l9eaKpYywA/u1e93+f9Bq5n63G6vqAq3uFRafZJ2yHOb9FYKp5+blCRhGOo6l3eQ+C482KGbLkJjMcQhD0/wCNN3c36252Q4+k3ZP57zvd+PsTdG6dkdesyrMy176cekkuJP8AOP8AZUB/V+msNemdD6V+zPqzseIvvb613jLo2M/sMUeAzzZPWSYx1I/R8G1z4wchyxGCEYZcnohL5sn9eXHL1Pm1XVesdLufji501OLXVv8Ac2Rpw5bnTvr3ZUQMit1R72UnT51uVX649P8ATyK8+se272W/12j2u/tsXOJ0p5MUjEHQd2KGHlubxRySgOKQ9Rj6JCf6XyvrPTPrri5QAbbXcf3Z2Wf5jlvY3VcTIcGNcWWHQMcIMrwjz7+K9F/xfC22ih9z3WfpLHAuJMNaNrRr/KU+HOZnhI6W53PfD44Ie5GZMSeHhkPVr/We+SSSU7nKSSSSUpMQCIOo8E6SSkdePRUSaq2MLjJLWgSfOERJJJRJO+qkkkklKSSSSUpJJJJSkkkklMXNa5pa4BzToQdQQqn2B9HuwLPRH+gf7qT/AFWfSp/6y7Z/wSupIGIK6MzHbY7g6x/xWm3qArcGZzDivJgPJ3VOP8i/Rv8AZt9J6tpnNa5pa4AtOhB1BCqfYH0e7As9Ef6Bw3Un+qz6VP8A1l2z/gkPUP63/ST6Jf1D9sP++i3UlSb1AVkMzmHFcdA8ndU4/wAi/Rv9m70nq4DKIIOyJRlHcb7HofKS6SSSK1SSSi5zWtLnGGtEknsAkpwfrZ1M4+MMKoxbkCXkdq//AFIuPVnqea7Ozrcl3D3eweDRowf5qrLoOVwjFijH9I+qX95y82TjmT02j5KSSSU7EpJJJJSkxIAk6Ad0iQBJ4CugN6cGusYH57gHtreJbQ061vsZ/hMp7fe2t38yhKVeJOwSBfgAwr6dkOrF1xZiUO1bbkO2bh/wdf8AO2f5if7N00aHqEnxZRYW/wCcdqrWPstsN1zjZa76VjzLj8ymTeGR3lX9wR/7vjTYG0b/AL3/AKDwtsdPFumHlUZLv9FJqsP9Vl+3d/nKpY11L3V3NNVjNHMeNpHycmIDtCJHmum+qtmLktsqznMuuoj7OLgHObWR7hW5/u27kzLkligZn9ZEdNp/830/81dCInIRHpJ/xXmklf6/TjUdVtrxW7KiGvDR9GXCSa/5CoKSEhOMZDTiAlr4rJR4ZEdjSkkkk5CkkkklO59VepnGy/slh/Q5Jhs8Cz83/P8AoLtF5eCWkEGCNQQvROk5wzun05H55EWD+U32vWT8SwVIZR+l6Zf3uje5PJYMD01Hk3EkklnNtSSSSSlJJJJKUkkkkpSSSSSlJJJJKUkkkkpSSSiXNBAJAJ4CSmSSSSSnmOij/s1+sH9TG/8APa6dc50dsfW/rrvFuP8A9QujU/NfPH/Z4v8A0lBjxG4n+9P/AKcnnvrRj2Y1uJ1/Gbut6e6L2jl1D/bYP7E/9Pet2i+rIpZfS4PqtaHscO4OoUnsZYx1bwHMeC1zTqCDoQVzmJa/6t5n7PyiT0rIcTh5B1FTjq6i0/u/+rP9J6aH63GI/wCUx3w/18fzcP8AegjhMMhI+TJv/VyD9L/DelSTAgiRqDwU6gZVJJJJKUkkkkpS5yp37a+sxtb7sHo4LWu7OyHfSj/iv++fy0XrnV73XDovSf0nUbxFjx9Ghh+lbY4fRft/1/mvU0uk9Mo6Xg14dGoYJe/u55+nY7+siNB5tqA9jEcktMmWJjij1jjl/OZv8L+bxtxc71s/Y/rJ0fPOldpfiWO7S8foR/nvXRLN+sPSv2r0u3Fadt4izHfxtsZqzX83d9BArOVnGOUcZqExLHM/uwyx9vi/wOLjdJJZH1c61+1MLbd+jz8Y+lmUnRzXj279v7tm1a6ANiwx5ccsU5Y5ipRNFSSSSKxSSSSSlLnMz9J9eunsbqaMO2x/kHF1bf8ApLeycijFosyMh4rpqaXPe7gALn/qsy7qGbm/WS9hYMwinCY7kY7Pzv8ArrmqOepjHx4v8GLb5UcOPPmOkRjlij/Wy5/RwD/qfHkelSSSUjUUkkkkpSSSSSlJJJJKUkkkkp//1/VUkkklKSSSSUpJJJJT5l9fadmex/8AKePvIeFy67b/ABiUw5tn8tp/zmlv/fFxKy+bFZj4gPXfBpcXI4x+6Zx/5/E7H1U6V+0+s01vE0Ufpr/Da0+1n9t66j6/9Zsw8SnDx3bb7T6zyOzK9WD+3YrP1F6V9i6R9qsEXZxD/MVjSpv9r+cWR9Zvqv13qOfldQc6gUxtqaXmRWBtZps/tKxCEoYAIgmcyCa6Rc/NzGHP8Qkcs4xw8tGUYCR0nl/9H/8ASarG09c6N7dBkMlv8mwf+QsXAPY+t7mPG17CWuB7EaFdv9XendR6bVbj5RY6px317HEkO/P5a32uWJ9bun/Z84ZbBFeVq7ysH0v8/wCknZ4mUIzIqQ0kx/D8sMfMZOXjISxyPHiI/wCj/i/9Bwl6n9QaNmDjeVJd/nu3LyteyfVGj0sUNj6FVbPw1Q5UeqR8E/GZfq8ce8jL/FH/AKG9AkkkrbiKSSSSUpJJJJSkkkklKSSSSUpJJJJSkkkklKSSSSUpJJJJSkkkklLOa1wLXAFp0IOoIVP7A+j3YFnoD/QOG6k/Bn0qf+su/wCtq6kgYgrozlHY6Hcbx/xWk3qAqIZnMOK46B5O6px/k36bf6t3pPR8vKrxcW3Jf9CppcfOO39pFc1rgWuAIOhB1BC5P60Vms19M6aLN13vsx69WAD6O2vX0vd/o9lajyTlCBPzdv3uLoz8vihmyxj8mty/c4B839x6Tp+YzOw6spmgtbMeB7tVL6zZf2bpNoaYfeRU3+19P/wNrkD6qYPUsHDfTmtDGF26psy4T9PcqP10vmzGxx2DrHD4nY3/AKl6tfD4nLkxcQr9KQP9Rrc+I4jlEJCUQagQb0k80kkkuicZSSSSSlJJJJKbPTmVnIdfa3dViMN72nhxb7aaz/XucxV3vfY91ljt1lji97j3cdXFWcfTpmc4cufQw/CX2f8AVBVUyOspHsRH/m8f/drjtEd9f+5S4mJkZmQ3Gxmb7X6xwABy95/NYujq+pLfT/TZbvUP7jRtB/t+5yl9Saa/s+TkR+kdYK57hrRuA/6S6ZZvOc7ljlOPGeEQ3Nayk2+X5eBgJSF8TwPV+g5XS4scRdjOMC5oiCfottb+buWYQDyOF6Tn0V5GFfRaJZYxwM/Beas+iJVrkeZlmgeL5oGif3uJh5nEMchw/LLo3BF/TCD/ADmA4bD/AMBadpZ/Vpu+j/xiqq107U5bD9F+JcD/AGQHt/6TVUGoCsR0Mh48X+N/6FxMR2B8K/xV0kkk9apJJJJSl031My/dfhuOhAtYPh7LP/Ra5laX1dv9DrGOezyaz/bG0f8ASUHNQ48Ex4cQ84+plwS4ckT419r3ySSS591FJJJJKUkkkkpSSSSSlJJJJKUkkkkpSSSSSlLI+suHVlYQAcWZQd+q7J3Of/oht/Nd+f8Aufzi0MrKrxqw5wL3vO2utv0nu/cYh4uLYLDlZRD8l4gAatraf8FV/wCjLP8ACpkwJAw3vfwZcROMjLdcJ9P9c/8Ae/vPK/VN2e7rD6ci2zbQ12+tziRu+hq0rtVWrwcavMszGN23XNDXkcGFZTcOM448JN6lfzecZsgmI8PpAr+t+k4HSx/2V9aPizH/AOoW+ohjA4vDQHO+k6NTHiVJWMk+Mg1VRjH/ABI8DUxw4ARd3KUv8eXGpBysXHy6H4+SwWVPEOaUZJMBINjSl7zoo610Exitd1Lpo4pJ/TVj/g/9I3/X9GrmH9Z+j5R2G4Y9o0dVf+jcD4e72f8ASWsquX0zp+aP1rHruPG5zQXD4P8ApKQzEtZj1fvR0/xoswyYpCskDf7+PQ/4UD6Zf8xsMsY8SxwcDwQZCckASTAWI76m9DJmuuyk/wDB2OH/AFRco/8AMzopP6QXWjwfa6P+jtTah3P2LuDlv87P/wAKF/8ApVvZvX+j4IJyMutrh+Y07n/9t17nrLf1PrnW/wBF0ih2BiO+ln5AhxH/AHXq/wC//wDnpamH9X+jYRDsfEra8cPI3uH9uze5aCGnT8UjLgx644HJPpPNXCP+ox/7uc3P6R0XD6TS5lEvtsO67Ifq97v5Tv8Avq0EkkGCc5TkZzJlI7kqSSSSWuH1j6vW35Teq9Ju+x9VYILz/N2t/wBHkN/7/wD+o/Tr0/W/7I4Y/wBYcWzpt/HrQX0PPjXazd/r+eukULKqrWGu1jbGO5a4Ag/2XJhibuJo/bFsx5mMojHnh7sYioSB4M2OP7scnq4of1MkEGL1Pp2YJxcqq4fyHtcfuBVmQsbJ+pv1ayTufgsY7xqLq/8Ao1OY1Vv+YfQx9B2SwfutudCV5P3Yn/C/9BTwcmdsuWHhLFGf/Ojl/wC4d+2+mlpdbY2to1LnEAf9JY2b9cuiYzvSotOfku0ZRij1HE/1m/o/+kh1/UT6tscHPx33OGs2WPP5HNatjD6b0/Bbtw8evHB59NoaT/WcPc5L9Yf3Y/8AP/71X9ChreXOe1R5eH+NxZ5PPN6T1n6x3Mv66PsXTWEOr6Yx0ueRw7KsEf6/6FdQxjK2NYxoaxgDWtaIAA0DWhSSRjARvqTvI7sebmJZeEUIY4fJihpjh/30v3pzUkkknMKkkkklKSSSSUpJJJJSkkkklP8A/9D1VJJJJSkkkklKSSSSU8d/jCpnD3xwGn7nR/35cT0TpjuqdUowh9B7ptPhW33WH/NXov10xnX9NLWDc9zXNaB3Ojh+RcZ9V+t9P6DZkWZmPc/KshjdoaNrB7nD9I5rtz3KlzMInNAyNRrU/wB13/hWbIOQzxxDjzRkeCI+b9ZGMRP/AAXs/rL1odC6YyzHY03Pc2rHrd9GAPdoP3GBclf/AIwOr20vY+ijaWmYDhxr+8qf1p+sDeuZdVlTHVY9DNrGPidxMvf7ZasR30Hf1T+RR5eZkclQlUNBo2eT+F4o8rfMYhLMRKUuLeP7sXU/5650649Ud4Lv/JLe6ni1dX6QRV7jYwW45/lAbm/+QXALoeh/WajAwhi5TLH+m4mpzIMNOu33EfRcpcWa7jkOhDU5vkRAQycrCsmOV1H9IOFRWbMiqoiC97WEfE7V7X9X2bcV7vF8fcAvLMSmvqP1hZlYNL/svqC20uEBh+k/+T9Jes9GbtwGH94ud+Kk5aNCXnv5NX4tk45YhsRHilHrCU/0Zf4reSVR/Usdj3MLLyWkgluPe4afuvZU5rv7Kb9qY37mR/7DX/8ApFTccf3h9rn+1k/cl9hbiSp/tTG/cyP/AGGv/wDSKX7Uxv3Mj/2Gv/8ASKXHH94far2sn7kv8UtxJU/2pjfuZH/sNf8A+kUv2pjfuZH/ALDX/wDpFLjj+8PtV7WT9yX+KW4kqf7Uxv3Mj/2Gv/8ASKX7Uxv3Mj/2Gv8A/SKXHH94far2sn7kv8UtxJU/2pjfuZH/ALDX/wDpFL9qY37mR/7DX/8ApFLjj+8PtV7WT9yX+KW4kqf7Uxv3Mj/2Gv8A/SKX7Uxv3Mj/ANhr/wD0ilxx/eH2q9rJ+5L/ABS3ElT/AGpjfuZH/sNf/wCkUv2pjfuZH/sNf/6RS44/vD7Ve1k/cl/iluJKn+1Mb9zI/wDYa/8A9IpftTG/cyP/AGGv/wDSKXHH94far2sn7kv8UtxJU/2pjfuZH/sNf/6RS/amN+5kf+w1/wD6RS44/vD7Ve1k/cl/iluJKn+1Mb9zI/8AYa//ANIpftTG/cyP/Ya//wBIpccf3h9qvayfuS/xS3ElT/amN+5kf+w1/wD6RS/amN+5kf8AsNf/AOkUuOP7w+1XtZP3Jf4pbiiGMDy8NAedC6NSB5qr+1Mb9zI/9hr/AP0il+1Mb9zI/wDYa/8A9Ipccf3h9qvayfuS+wtsEESNQeCuJ+ttm/q7m/6Otjf+/wD/AH9P9WPrHbj2s6fkh1tDztqcAS5hP5sfnV/9Qg/Wf/lvI/sf9QxXPg+SOXKZDpA2OxuLF8V5afLjglqDL0y/ei5aSSS3XIUkkkkpSSSSSm1gj1KM3GH0rKhbWPF1Dt7m/wDbTnqoiUX2Y9zL6j+kqcHNngx+a7+S9vsci5lFbYysYfqV5/R+Nb+X4tv7r6/8F/pKkzaR/r6j++PTX+Ku3iP6v/Rb31c6wzpuS+u/+i5Ebnc7HjQP/qO/PXbV303MFlVjXsPDmkELzNMNJgkA8gEj8irczyMM0uMS4JH5tOISZsXMyxx4a4h06PZfWLr9FGNZh4rxZlWgscWmRW06Oc537/7jVxoAAAHASAA40U6abb7W00NNlr9GtH/VOP5rG/nvU2DBDBAxB/rSkWPLklllZ8gA2MT9Hh5uQdJrGMz+tcfd/m1Mcqqs5dtQZXh47t9OPJdaOLbnfztw/wCDb/NU/wAhVlJDrL943/g7RWy6DspJJJOWqSSSSUpFxLPSy6bB+ZY133EFCSEgiECLBHdI0IL6gkkkuZdhSSSSSlJJJJKUkkkkpSSSSSlJJJJKUgZWVXjVhzgXvedtdTfpPd+4xLKymYzA5wL3vO2utv0nu/cYh4uLYLDlZRD8l4gAatraf8FV/wCjLP8ACppPQb/kvjEVxS26D99WLi2Cw5WUQ/JeIAGra2n/AAVX/oyz/Cq2kkiBS2UjI2VJJJIoUkkkkpSSSSSlJJJJKUkkkkpSSSSSlJJJJKUkkkkpSSSSSlJJJJKUkkkkpSSSSSlJJJJKUkkkkpSSSSSlJJJJKUkkkkp//9H1VJJJJSkkkklKSSSSUwtpquYWWtD2nsVzvWfqhjZjS5jd5HHZ4/qWfnf210qSBAIoix4roZJ45CcJGEhtKJovkHU/q3nYLnFjTdW3mBD2/wBev/yKyHfQd/VP5F7fk4WPlNi1skcOGjh81y3V/qTTkP3tYX7jBfXDXEH/AEg+j/bVTJyYvixmv6pdvlvjsuEw5mPFoQMkPm/w4f8AevmGPjZGVaKset1th/NaJ+/91dZ0T6i23uD8z9K7vSwwwf8AG2/+QXadJ+quHg1BpY1je9bO/wDxln0nrdrrZW0MraGtHAGgUuPl4x1l6j/zWpzPxXJkuOL9XDv/AJQ/945XTvq9iYlbWua0hv0a2iGD5fnLWAAEAQBwAnSU7mkk6lSSSSSlJJJJKUkkkkpSSSSSlJJJJKUkkkkpSSSSSlJJJJKUkkkkpSSSSSlJJJJKUkkgZObi4gacm1tQeYaXGASkSBqdEgEmgCT2DmdA+rtPS2etbFmY8e5/ZoP5lf8A5NYH1qZt6zYf32sP/R2/99XWVdY6Xda2mrJrfY8w1oMklc99c6S3Mx7+1lZZ82Gf/RitfCuCGYRhVGJjp/jMfxI5ZxM8t8ViXqFafL6f6rzqSSS3XJUkkkkpSSSm4Uegwtc45Bc71WEewN/wZY79535yCWCLj5VuM5xZtcywbbaXia7G/u2N/wCof9NiEkkQCKIsKBI1Da9Hp+Rrj3/ZHnnHyZLP+tZTPzf+OYn/AGVmn6PovH7zbqyPxcFUTbW+ATeGQ2l/jDi/7xNg7j7PS2/sFdeuXl00j9yo+vYf6ra/0f8An2JrMuttTsfCrNNL9LbHGbrR4Wvb7a6v+AqVWAOERwo9Bha5xyC4+o0j2Bv5hY795Lh24iZa7foj6f8AfqvsK/6SNOkknrVJJJJKUkkkkpSnQzffWz95zR95UFd6HSb+rYrImLA8/Bn6T/vibOXDCUv3QT9i6IuQHcgPdW4FF1hse64OdEhl9zG6CNK6rWMb/mqH7Lxv38j/ANib/wD0sriS5jhj2H2O0MmQChOX2tP9l437+R/7E3/+lkv2Xjfv5H/sTf8A+llcSS4I/uj7Fe7k/fl/jFp/svG/fyP/AGJv/wDSyX7Lxv38j/2Jv/8ASyuJJcEf3R9ivdyfvy/xi0/2Xjfv5H/sTf8A+lkv2Xjfv5H/ALE3/wDpZXEkuCP7o+xXu5P35f4xaf7Lxv38j/2Jv/8ASyX7Lxv38j/2Jv8A/SyuJJcEf3R9ivdyfvy/xi0/2Xjfv5H/ALE3/wDpZL9l437+R/7E3/8ApZXEkuCP7o+xXu5P35f4xc+zpnpObk4bn/aa5DfWssta5p+nUfWfb6W/9+tWcXKryay5oLHsO2yt30mO/cejqplYthsGVikMyWCCDo2xo/wVv/ouz/BJVw6xHnFPFx6TOv6Mz/0Zf1W2kgYuVXk1lzQWPYdtlbvpMd+49HTgb1Cwgg0dCFJJJJIUkkkkpSSSSSlJJJJKUkkkkpSSSSSlJJJJKUkkkkpSSSSSlJJJJKUkkkkpSSSSSlJJJJKUkkkkpSSSSSlJJJJKUkkkkp//0vVUkkklKSSSSUxc9jS1rnAF5hoJ1JjdDf7LVJcP9ac19vULepU5DaWfVosdTW54YL8hwF2dR7o3+n09zKmf8LkPRPrDZn9R610XL6Fk7bPseRmYzZ/R3x9mLca7+RfVa5u7/BpKe0SXJ29Yr6vl/VvLxi+oPy7q8igmHMsZj3+rjXs/frsZ/wB/TdD6Xi/WTHt611c2ZD8i65uPQbHtqppre6iqqumt7Gep+j322/T9RJT1qS5S77LR1n6s0dNuNmFvzQ0ix1gdtrfua6xzn+p6Vu5vu/m1b+sVj29Z+rrWuLWvzbA8AwCPs+Q6HfvJKegUXvZW0ve4NY0S5xMADzKwfqZY9+Dnl7i4jqWYAXEmALXBrdUP63mvPbR9X3X/AGarNDrs6/cGenjUx+efo+vlvx6f6nqpKekSXF5HWbOof4ueo3G0HMxMe7GyLK3T+lp/Rm1j2H/Ct23M/wCMQX9Owh1nDwPq8y6jqmFZRkdRu9Wz0m47xusrsbdY5uT9oZ7WNqZ/mJKe6SWL1J9g+svSGNcQ11eVLZ0JDGbdyw8f9l145d9YsfNb1AOccrJc28sB3H31X459KvH2/wA36aaZ0f4s8MHFEGzqAeGI4p6ynD5eKP8Am3tkkOj0/Qr9J2+va3Y6d0tj2u3fne1ETmAqSSSSUpJJJJSkkkklKSSSSUpJJJJSkkkklKSSSSUpJJJJSkklF72VsL7HBjGiXOcYAHmUlMlndUNGZW/pwqGTa4e5vDa5+jZbb7vS/k/4VT9TJztKC7HxTzcRFjx/wLXfzTP+Gf7/APR/6VWaMenHrFVLQxg1gdyeXOcfc5zv3kw+oV+ievfyZR+rIkfnGoiP0T/Xl/3LxuD0TI6X9ZMWq331uLnV2jhwDT/muatv624vrdMFwEux3hx/qu9jvysW05jHEFzQS0y0kcHyUcilmRRZRZ9C1pa74EQn8oBy+QSjsJcX+D+lFXO55c0Bxj1CHAT3P7z5mkiZNFmNfZRYIfU4td8kNdMCCAR1cIitFJJJIoUjWsY3p+NaG/pH23tc4ckNLPTb/Z3IKtOcGdPwXuEtZkXuI8g6opst4/3v+4muH6Xl/wB1Fe0VYDvQdU2/MaAb3Wa11kjd6FdY2+pYxv8AO2PTNyca5wry6WVsdp69Ddj2T+e5k+ndW389ij1JhZ1HJBM73m1juzmWfpK7G/yXNcq0F3taC5zva1o5JOjWhNjESiCSbIB4r7/upJIJA2Bqm/g4Lf2o/Cy4AZXdvdyAWt3svb+97f0laD9sqbpjY1Tah9E2t9Sxw/ese47dzv3WK60j9s3sBk1YdlTiO7q6Qyz/AKXtWS36I+CEPUbl+5A1+jcuK9Ey9IofvS16tuxtORivyqqxTbQ5oyK2zscx52svqDvdXtf7La0OxlbcGm2Ie6ywOd3IaGbW/wDSU8T+idR/4hv/AJ8YmscG4GM4iQ2+xxHkPScURYNa6Tr6e3xIO194/wDdUksbVgxS6pt+ZAdcbJNdW4bm0srEepa1v8696g3JxrSGZdLGMdp69Ddj2T+f6Y9lzG/nsT9VaW9SyCTLbX+tW7s5lnvre1VdZAAJJIAA1JJ0DQlGIlESJNyAN33/AHVEkEgbA1TO6l9F1lDy1zq3bS5hlp8Hsd+69qgpXUvx7n0WACyo7XgGQCOW7h+6op41AN3putO56KSSSRQpdB9TcXfmW5JHtpZtH9Z5/wDINcufXefVzB+x9LrDhFl36V/9r6A/zNqqc/l4MBHWfpH/AHTY5WHFkB6R1/g6iSSSw3RUkkkkpSSSSSlJJJJKUkkkkpSSSSSlJJJJKamVi2GwZWKQzJYIIOjbGj/BW/8Aouz/AASJi5TMlhc0Fj2HbZW76THfuPR1ndWLMOl/U2OFdtDfdP0bG9qLP7X80/8Awb02XpuXTeX8WSHrqB+baB/7gt5ttb3Oa1wc5hh4HY+amuN+qPVrLOq5FWQ6XZk2A/y2/wDmC7JNxZRkjxDuQv5rl5YMntnXQSvz/wDQlJJJKRgUkkkkpSSSSSlJJJJKUkkkkpSSSSSlJJJJKUkkkkpSSSSSlJJJJKUkkkkpSSSSSlJJJJKUkkkkpSSSSSlJJJJKf//T9VSSSSUpRdu2nZG6DtnifNSSSU4/S/q5iY/Ta8bqFdWdkF9l2RdYwEOuuc62+xrbN+z3O2t/4NUuj/VXJ6bnYlhyGWYnT25VWLXtO8VZD2XVVOcTt/VvT9NdKkkp53J+qTXfWfE69iX+gyt7rMzFiW22em/HZkM/0d3p2bLP9InZ0LrXTLcgdDy6G4eTY+77JlVueKrLDutOPbS+t3pvf+k9J7V0KSSnmKvqjlUdJ6bRj5jWdT6VdbfRk+nNbjc6119NlG/d6Njbtn87vVqjo3VsnqeN1HrWTTZ9h3OxcbGrcxgse01OvtsufZY93pvc1jPYt1JJTzOB0b60dMGTVhZOEaL8m7Jb6tVpePWebdjiy1rfbKvYnQ3Ozs7O6r6WVZmNqqZVtmtlNQ3elFm7dvyLLrlsJJKeZzfqeXjrFGBZXi4fWMUVOoDIDMhoNf2lgZtbssqP6Vn/AAatdQ+r91uX0/qeBc3H6hggVWPcCWXY5/nsa5rfd/wlL/8ABWLcSSU5h6ZkW9ZZ1LJuaa8Zr2YlDGkR6gaLLLrHOPqO9v5rWIGRhfWTJqtxn5eK2m0OY61tLzYGO00Y630t+xbSSHCPtZBlkK2PCKFxjpSHDxq8PEoxKpNePWypk87WNDGz/moyS5v/ABhZ+Z0/6pZuXg3Ox8iv09lrDDhNjGug/wBUorCSSSer0iS8m6Z0P/Gp1Pp2N1HH64BTlVttrD7nhwa4SN4FLvcn+tmd9a+mZHQej29a+xZVuM77ZlutLaS/e+LLbdm76I2fQSQ+sJLybo7/AKxHquH6v10wsmv1q9+O3Kc51g3DdS1npjc6z6Czj1n6z5/VuqMZ9Z6ul1Y2TZXXXl3mqW737fRAY/217UlPtSS4b/F87rBzcv8AaH1hxuts9JuyrHvNxYd3845uxm391dykpSSSSSlJJJJKUkkkkpSSSSSlJJKi7LtyXGrAgtBh+U4SxviKh/h7P/Amf+BoEgfwXRiZeQ3J+WKbJzK8ctZBsvf/ADdLNXu/8gz/AIR/sQmYdl7xdnkPc0zXjt1rYex1/nrf+Ef/ANbrRsbEqxg4tl9j9bLXmXuP8p3/AHz6DEdCifm/xV3EI6Q+s/0v8H91SSSScxqSSSSU8p9b+mlr29RrGjoZd8f8G/8A74uaXpmRRVk0vouG6uwFrh8V571Pp9vTst+PZqBqx/ZzT9Fy2Ph/MccPakfVD5fGH/oLQ5vFwy4xtLf+81UkklfaqlN1znY9WOQNtTnvB7k2bd0/5qgkhW3hqlPXlxU2jIqbkVVz6W4lr2A8truZ7vT/AODcptza6fdh0Ci2IFznGx7Z/wBFu2sqd/L271VSQMInpv0s8P8Ai/KniP8ALf8AxkmNe7GsNjAHF1b6oPhYNjnf1kICBHgnSRoXfdHgzrudXXfWACMhgrcTyAHCyW/5qTrnOoZTA21uc8HvL9oP/UKCSVDeut/9yqz+xPVlxS2i+puRSyfTDiWuZP0m1Ws9zWf8H9BTbm10ndiUCm3gXOcbHtn/AEW8NZW7+XtVVJAwiem+4s8P+L8qeI/y3+1YJ0kk5apJJPXW+17a62lz3kNa0cklJTodA6aeoZ7GuE0Ve+7wgfRZ/bcu/Wf0Xpbem4batDc/3XOHd37v9Vi0Fg85zHvZdPkj6Y/986fL4vbhr80tT/BSSSSrMykkkklKSSSSUpJJJJSkkkklKSSSSUpJJJJSlT6j02jqNbKcgu9JrtxY0wHHtuVxJAgEURYKYylEiUTUhsQ1MTpfT8P+jUMrI/OA1/zj7lbSSSAAFAV5KlKUjciZHuTakkkkUKSSSSUpJJJJSkkkklKSSSSUpJJJJSkkkklKSSSSUpJJJJSkkkklKSSSSUpJJJJSkkkklKSSSSUpJJJJSkkkklP/1PVUkkklKSSSSUpJJJJSkkkklKSSSSUpJJJJSkkkklKSSSSUpYH156Rm9Z+rOX07Aa1+Tds2Ncdo9r2Pd7j/ACWrE6t9eurYHU8rDZTQ5lFjmMLg+S0H27os/dVT/wAcfrP/AHHx/uf/AOlFaHI5iAQBRF7tWXP4Ikgk2DWy/TGf41+mdOxunY+F0804lbaqy5xLi1ogb4uDdyv9Xx/rllUYFh6N0vOy/RP2w5IDgyzcf0dG5/8AN7Pcs/8A8cfrP/cfH+5//pRL/wAcfrP/AHHx/uf/AOlEfuGfsPtR/pDl+5+xoW/VH639Q650rOyOk9P6fTgXsfZ9iLWbm72Pe6z3O37Gs9i0s3p31vdm3uq+rPRrajY8stsa0vc3cdtlnv8Apvb9NQ/8cfrP/cfH+5//AKUS/wDHH6x/oMb7n/8ApRL7hn7D7Vf6Qwdz/itj/F/9V+u9J671PqPVMWjDrzmD06sdw2Ndv3+nXW2djF3q86/8cfrH+gxvuf8A+lEv/HH6z/3Hx/uf/wClEvuGfsPtV/pDB3P2PoqSp9Iy7s3pmLl3NDbL622Oa2YG4bvbulXFVIIJB6Gm0CCAR1FqSSSQSpJJJJSkLIyacav1LnbQTDRy5xPDGMb7nv8A5LUG/NPqHHxG+vkD6QmGVz3vs/N/4v8AnU+PhCuz7Re/18kiPVIgNB/MpZ/gmf8AT/0ibd6R+3ovEABc9O0f0pf97FH6GRna5QNOMeMYH3OH/dl7f/PFf/XPUVxrWsaGtAa1ogAaAAKSSIFeJ7olMnTYDaI2UkkkitUkkkkpSSSSSlLP6x0mrqeN6bobczWmzwPgf5DloJJ0JyhISiakNkSiJAgiwXzPJx7sW51F7SyxhhzShrv+sdFx+p1e72XsH6O0dv5L/wB5i4fNwcrBuNOSza4cHs4fvMd+ctzlebjmjXy5B80f2xc3NgljPePQ/wAUCSSSssKkkkklKSSSSUpJJJJSkkkklKSST112WvbXW0ve4w1rRJJSUsASYC7H6t9B+yNGZlN/WHD9Gw/mA/8AoxyXQfq23ELcrMAdkcsr5DPP+VYt9ZPO87xXixH0/pS/e/qx/qt7l+X4anPf9GPZSSSSzm2pJJJJSkkkklKSSSSUpJJJJSkkkklKSSSSUpJJJJSkkkklKSSSSUpJJJJSkkkklKSSSSUpJJJJSkkkklKSSSSUpJJJJSkkkklKSSSSUpJJJJSkkkklKSSSSUpJJJJSkkkklKSSSSUpJJJJT//V9VSSSSUpJJJJSkkkklKSSSSUpJJJJSkkkklKSSSSUpJJJJT5R9cqzX9ZM0fvFjh82MWNBPAJXSf4wK9n1gLv36a3fi9n/fUf6mX1DEyanua0tsa4biBoRH539VbIzHHy0MnDxVGIrb+q4hwjJzU8Zlw3KRv/AJzyu13gfuKW137p+4r0v1cf/SV/5zUvWx/9JX/nNUH+kT/mv+d/6C2P9GD/ADv/ADf/AEJ47EaPstUt12jsjbB+7+C9HxGsONWYH0R2RtjP3R9yb/pD/V/87/0Fb/on/W/83/0J8x2t/d/BZnVyBZWBpDSfxXqP1g219HynAAEsgaeJDV5d1FpszWVDkhrR/aKtctn90GVcNGt7anMct7GSMOLjscW3D/VfWemVej03Fq/0dNbfuaArSjW3axrR2ACksYmyT3LvgUAOwUkkq+TmV0EVgG29/wDN0M1cf5X7rK/+Ef7E0kDUroxMjQFpbLK6mOsscGMaJc5xgAeZVPflZ+lW7GxD/hYi2wf8E0/zFf8Awj/0v/F/zilXh2XPbfnEWPaZrpb/ADVZ8df523/hX/8AW/TV1DWW+g7dV9xhtUpd/wBGP9395HRRTj1iqlgYwdh4nuf3nIiSScxkkmzqSpJJJJSkkkklKSSSSUpJJJJSkkkklKVfMwsbNpNOSwPYePEH95rvzVYSRBIIINEbEIIBFHV4vqf1Vy8YmzEnIp52j+cH9n8/+wsMgtJBEEaEFeoKnndJ6fnD9YpBf2sHtd/ntWhg+JSFDKOL+tH5vsauTkwdYGv6p2fO0l02X9THauw7wR2ZaI/8EZ/6TWVf9XesUc45ePGsh/4N9yvw5rBPaY8pek/85rSwZI7xP09TnJItmJlVaWU2M/rNI/KEKDMRqpgQdjbGQRupJTZRfZoytzv6rSfyK3T0Pq1/0MWwT3eNg/8ABNiEpwj80hHzNJEZHYE+QaKS6DF+puY8g5NrKW9w33u/76z/AKS3MH6udLw4cK/WsH59vu+5v0P+iq2Xn8ENjxntH/vmaHK5JbjhHi8p03oGf1AhzWelSf8ACv0EfyB9J66/pfRcPprf0Td9xEOud9I/1f3GrQSWZzHOZc2nyw/dj/3TbxcvDHr80u5UkkkqzMpJJJJSkkkklKSSSSUpJJJJSkkkklKSSSSUpJJJJSkkkklKSSSSUiycmjFqN17wytvJPj4Bc/k/W1+4jFoAb2dYZJ/sN/8AJKh17Pfm5zq2maqXFlbR3PDnf2nLW6b9WMdtTbM4Gy12prBIa3+T7fpLJyczzPM5pYuVIhDHpLIf4/8ARYzKRNRaH/OvqX7lX+af/Jpf86+pfuVf5p/8mt39g9I/7jN+93/klzn1ixMfEzmV47BWw1hxAnmXeKh5mHP8vj9yXMWLA9JN6/4KDxAXb1HS8qzLwKci0APsBJDeNCWo999WPU625wZW3UuKp9A/5Ixv6p/6pywPrJ1F2RmHGa79DjmI8X/nu/s/QV7Lzfscpjyy9U5Rhw3+lOUd5LzKogtvK+tsOLcSkEDh9h5/sN/8kg1fW3MDv01Nb299stP5Xqx0r6tUupbfnS5zwHCoGAAf34925Xcj6tdMtYRWw0P7OYT+LXEqrHH8TyR933BC9Rj+X/m8PD/jLamdbT9O6tidQb+iO2wCXVO+kP8AyTVeXB215XSs+J23UmWuHDh/5B67bEyW5WNVkM0FjQ6PA9wrXIc5LNxY8o4c2P5v6y6Mr0O4eezfrLn0Zl1DG1ltb3NbIMwD/WQf+dfUv3Kv80/+TW/b0XpdtjrbMdrnvJc50nUn5qP7B6R/3Gb97v8AySgnynxAyJjzAAJNC5bf4qOGfdxK/rZmh36Sqt7e4EtP3y5bfTetYnUPaya7hqancx4tP5yHf9XOlWsLW1Gp3ZzCZ/6W5q5jMxMnpWaGboewh9Vg0kdnKOWXnuTIlmkM2ImpV0/wvTJFyjvqHu1zfUvrFnYuddj1trLKzDS4GeAf3ltdOzBm4VWQNC4e8eDho/8A6Shd0fpt9rrraGvseZc4k6/ir/MRy5sUDy+QQup8W3FAhcbI0Lz/APzr6l+5V/mn/wAml/zr6l+5V/mn/wAmt39g9I/7jN+93/kkv2D0j/uM373f+SVP7p8R/wDFI+2X/eLeGfdy8P62EvDM2oNaf8JXOn9ZhldEx7XtD2EOa4SCOCCuU+sXSMfCFd+MNjLCWuZMgGNwLZWl9Vch1mA+l2vovhp8ne6P85P5PmM8eYlyvMETlVxmP8ZMSb4S7RIAk6AclYed9acelxrxGeuR/hCYZPl+c9Q+tPUHVsZhVGDaN1sfu/mt/tKj0ToIzmfackltEkNa3QuI8/3Eua5vPLN925WuMfPP91UpG+GLJv1szw6XVVFvhDh+O5a/TfrDiZrxS8ehcfotcZDv6j1J/wBXekOZsFO0/vNc6fyrm+r9Ks6Ze2HF1L9a7OCCPzXfy2qGc/iHKAZMkhmx36xvX/NjKKDxx1Ooe3WF1vreX0/LbTS1haWBxLgSZJcOzh4K30HqDs7BDrDNtR2WHxj6L/7TVifWv/lFn/FD/qnqxz3Mn7nHNhkY8RjRG+vRMpemw9H0zJsy8CnIsAD7ASQ3jkhc7Z9aeotsc0MqhpIGh7H+stzoP/JGN/VP/VOTnoXSSSTjNJJkmXd/7Sdkx8zmw4Dhy+3LgBmSfn4oxURIgUXB/wCdfUv3Kv8ANP8A5NTp+tuYHfpqa3t77ZafxL1tfsHpH/cZv3u/8kg5P1a6ZcwiphofGjmknXza4qA8r8SjqM4kR0v/AL6PCjhn3bPTurYnUWE0nbY0S+p30h/5Jqurg7GZfSc+J23UmWkcOH/kHrt8XIbk49eQz6NrQ4DwnsrHIc5LNxY8o4c2P5h3XRleh3CVJJJXlz//1vVUkkklKSSSSUpJJJJSkkkklKSSSSUpJJJJSkkkklKSSSSU+e/4yKtvUsW39+kj/Nd/5muSZW+xwYxpe86BrRJPyC7b/GXV/QLf+MZ/1Dli/U18dVe3u+l0fItK18GQw5QTAvhB08i42fFx84YE1xka+cVsD6o5+RD8ojFrPZ2r/wDMH0f7S6LA+r/S8GHMqFto/wALb7j/AGR9Bi0oPglB8Fn5eby5NDKo/ux9Lo4uUw49RHil+9L1F16bqacKuy57a2BolziAPxWRn/XDCplmG37Q/wDfPtZ9/wBJy18emq3FqFrGvgaBwBj/ADlP7Hif6Cv/ADG/3JmOWMaziZ+F8IXZo5paY5xx+JjxyeDzus5/UCRfb+j5FTNGfd+d/aWHWz1uv49fM31N+W5srvPrbVRV06sV1sY59rRLWgGAHO7Liuhs9b61YzTqPXn/ADBu/wC+rUw5IywylGPAAJaeTj5MU4cyITn7kiY+o/1i+rpkLIyacZm+10SYa0CXOP7lbG+57lX+z5Gd7swelj/m4oOrv/DT2/S/4hn6P/SeqsYy6DU/y3ehjCxxE8Me/f8Auj9JTsu7KJrwIDBo/LcJYPKhv+Hf/wCA/wBf+bR8bEpxgdkue/Wy15l7z4vejABoDWiANABoAAnQEep1KpT04Yjhj+Mv7xUkkknLFJJJJKUkkkkpSSSSSlJJJJKUkkkkpSSSSSlJJJJKUkkkkpSSSSSlJJJJKUkkkkpSSSSSlJJJJKUkkkkpSSSSSlJJJJKUkkkkpSSSSSlJJJJKUkkkkpSSSSSlJJJJKUmMwY57J0klPBdP2jqVHrces3dPju7/ANpd6uM6/wBOfh5rrmj9De4vY4dnHVzFpdN+tFPpNqzwW2N09UCQfNzR7tyxfh+aHK5MuDMeA8ViUvlP1Y4HhJBehXJfWv8A5SZ/xQ/6p66PD6jh5pcMaz1CyN2hETx9IBc59a/+Umf8UP8Aqnqx8UnGfJ8UJCUTKOsTxBM/ld3oH/JGN/VP/VOXJgCzq212odkQfm9dZ0D/AJIxv6p/6py5Sv8A5Xb/AOGR/wBWq3PfzHJeUf8AowWy2i92kkkttleW+twH2ug9zWQfkVq/Vsk9Iqns54H+cVl/W7+k4/8AUP5Vp/Vn/kmv+s//AKorJ5f/ALaZ/wC7/wCq2MfOXVSVC3rnS6bX1WX7XsJa4bXaEf2VD/nD0f8A7kf9F3/kVoHmsANHLjFf14r+Idw6S5v63+nOKP8ACe+fHb7Vev8ArN0uthNbnXO7Na0j/pP2rmcnIyuq5wdt3W2ENrrHAHZqofEubxSwnDjkMk8hA9Hqr1cSychVDW3o/qrP7MM8eq6Puah5/wBZXYmXbjfZ9/pmN2+J0njatTp+I3Cw6sdupYPcfFx1e7/OVXJ+r/T8q999u/fYZdDoHEKaWHmo8rix4JCGSIHHflrH9JdUuEAOb/zvd/3FH+f/AOYJf873f9xR/n/+YK7/AM1ul+Fn+d/sS/5rdL/4T/O/2KD2viv+dh/zf/Va2p93nup9WyOpWN3tDGM+hW3XU+J/Ocun6DgPwsANtG22073jwnRrf81c51npDum2tLHF9Fk7HHkEfmuXRfV/Nfl9PHqHdbSfTcTyY1Y7/NUfw8SHO5BzFnPw6E7eP/M+VUPmN7uB9Zp/az5/cZH3LpukememY3p/R9Nv3x7v+ks360dOddU3NqbLqRttA52c7v7Czei9dOA30L2l+OTLS36TSeY/eajDIOV5/L7ukM2sZ/3vUoHhkb6vYLF+te39nMn6Xqt2+PDpRX/WXpLa9wsc8/uBpn/pQ1c51Tqd3U8hp2ltbfbVUNTr/wB/cpviHO4PYlCExknkHCBA8X1KZyFVvbq/VDdtyv3ZZ9/uVX61/wDKLP8Aih/1T1udD6ecHBaywRdYd9g8CeGf2WrD+tf/ACiz/ih/1T1BzOOWP4ZjhLSQIJH94ykgioB3eg/8kY39U/8AVOWgs/oP/JGN/VP/AFTkx+sHSGktN+oMH2u7f2Vo4cuPHgw8c4wuEa4iI/ox/eXggAX2dFJZv/OHo/8A3I/6Lv8AyKDk/Wfp1TCaS69/ZoBaP7TnwnS5zlogk5oadpCX4RVxDuHM+tuz7dVH0vS93+c7atj6u7v2RRu/lR8Nzly3631bP/euuPya3/yDGrt8ahmPj10M+jW0NHyWf8PvLzWfmQCMZ9MfG+H/AL1ZDWRKVJJJa7I//9f1VJJJJSkkkklKSSSSUpJJJJSkkkklKSSSSUpJJJJSkkkklPIf4yK56Zi2fuXxP9Zrv/IrhsCnJyMtlGI7ZdZIad2ztu+kPgvQ/wDGBXv+r5dH83dW775r/wC/rguhP9PrGI4/6QD/ADvZ/FavKSP3WRG8eKv+k5HORH3uIO0uC6/xW5mdG6/iY1mTdcfTqEu23EmCY4WV9ry/9PZ/nu/vXoefi/bMK/F3bDc3aHETB8Vyd31P6pX/ADTqrh5O2n/poctzcJA+6YxlemnD6V3NcpOJHsico1rrxHiSYmTknFqPrWfRH57v71131OfY/HyX2Pc/9I0DcSeG/wAr4rH6X9UuqW41XrbMdu0TuO53+az/AMmur6R0pnS8d1LbDaXu3ucQBrAboPkmc3mxHGYxIMiR8v8AFbyPL5xmGScTGIv5vH+q5X10fFGKzxe4/cI/78uT+prPV+tNTv3fVf8A9Fw/78uk+utn6bGZ+6x7vvI/8isL/F5Xv67Y/wDcoefmXVtTsXp5KR7xl/zlZPV8Q8pQ/wCbF9HLGFweWgubIa4jUT9KCpJJLMddSSSSSlJJJJKUkkkkpSSSSSlJJJJKUkkkkpSSSSSlJJJJKUkkkkpSSSSSlJJJJKUkkkkpSSSSSlJJJJKUkkkkpSSSSSlJJJJKUkkkkpSSSSSlJJJJKUkkkkpSSSSSlJJJJKUkkkkpSSSSSkd+PTkVOpuYH1u5aVgZP1SaXTi37Wn8ywTH9tq6NJQZ+Vw5/wCcgJEbS2l/jIMQd3J6H0e7prrjbY1/qhoG2dI3eP8AWQus9CyOoZTb67GMa1gZDpmQXHt/WW2kmnk8JwjBR9sG6v8Awt1cIqmr03Ffh4NWM9wc6sEFw41Jd/FYzPqzlNzRk+tXtFvqRrMbt8Lo0kcnKYckccZA1i+TXsoxBrwUkkkrCXH630W/qVtVlVjWCtpaQ6e5nsrfScKzBwm49jg9zS4kt41O7urqShjy2KOaWYA+5MVI3+z/AAUcIu3m8z6sZWRl3XturDbXl4BBkAmUH/mjmf6ev7nf3LqklXl8L5WRMjE2TZ9RRwReXZ9UcguHqZDA3vtBJ/Hatrp3SMPp4JpaXWHR1rtXfL91XklJh5Hl8MuKEPV+9L1EeVqEQNgpJJJWlykkkklOb1vplvUqK66ntYWP3EuniC3sm6J0u7ptdrLXtebHAjbOkCO600lD92xe979H3Kq7/wAHZHCLvqtysbP+rGLkONmO77PY7UtAlhP9X81bSSObBizR4ckRIfiPKSiAd3lh9UcqdcisDxAMrW6b0HDwHC3W24f4R/b+o381aaShxfD+WxS4ow9Q2MjxUgQiOilidZ6FkdRym312MY0MDYdMyC49v6y20lNnwQzQ4MguN3vWySAdC1em4r8PCqxnkOdWCC4cHUlYNn1TzHPc4X1+4k8O7ldQko8vJYcsYQmCY4hUNf5fuqMQavo8r/zRzP8AT1/c7+5Tq+qN5cPVyGhvfY0k/wDS2rp0lCPhXKA/IT/hSRwRamB0zE6ewtob7nfSsdq4/wBpW0kldhCMIiMAIxGwC6qUkkknKf/Q9VSSSSUpJJJJSkkkklKSSSSUpJJJJSkkkklKSSSSUpJJJJTifXKv1Pq3mDna1r/817HLyyux9VjbazD2EOafAgyF7F1jDfndLysOuBZfU5jC7jcR7Z/tLzDN+qvXsGTbiOewfn1fpB/0Pf8A9FaXw/JAQlCUgCZXR66OX8RxzM4zjEkCNEjpRbeN9c85mmTTXcO5bLHf9+YtXG+t3SrYFwsx3fyhub/nM/8AIriiC0lrhBHIOhSU8+SwS/R4f7p/YwQ5/PDeXF/fH7X1Nn1o6RRi17LDedo0raT/ANJ21qoZP1zvdIxcdrB2dYdx/wA1m3/qlx9ObjVY1bXOlwaJaBJQ7Orf6Kv5uP8AAJkORxR6GX95bk+IczPYiA/qj9snX6p1HKzg+/KfvcxhDYAAA+Stf4ta5y82392tjZ/rFx/74sGjE691Qbcai2xju7W7Wf8Abjtrf+ku3+pfQM7o9OS7NDW2Xlu1rTuIDQfpR/WS5qUIYJQBiCaAiPPsv5HHllnjkkJEakzP93956ZJJJZLtKSSSSUpJJJJSkkkklKSSSSUpJJJJSkkkklKSSSSUpJJJJSkkkklKSSSSUpJJJJSkkkklKSSSSUpJJJJSkkkklKSSSSUpJJJJSkkkklKSSSSUpJJJJSkkkklKSSSSUpJJJJSkkkklKSSSSUpJJJJSkkkklKSSSSUpJJJJSkkkklKSSSSUpJJJJSkkkklKSSSSUpJJJJSkkkklKSSSSUpJJJJSkkkklKSSSSUpJJJJSkkkklP/0fVUkkklKSSSSUpJJJJSkkkklKSSSSUpJJJJSkkkklKSSSSUpJJJJTUzOldNzhGXjV3ebmjd/n/SWBnf4vOkXS7FssxX9gDvZ/mv93/TXVJKSGbJD5ZkeHT7GOeDFP54A+Na/a8Xg/4t8dvuz8p1hn6FQ2iPNztzl0GD9Weh4MGjEYXjh7xvd/nWblqJIz5jLP5pnyHpC3Hy2GHywHmfUf8AnLAACBoPBOkkomZSSSSSlJJJJKUkkkkpSSSSSlJJJJKUkkkkpSSSSSlJJJJKUkkkkpSSSSSlJJJJKUkkkkpSSSSSlJJJJKUkkkkpSSSSSlJJJJKUkkkkpSSSSSlJJJJKUkkkkpSSSSSlJJJJKUkkkkpSSSSSlJJJJKUkkkkpSSSSSlJJJJKUkkkkpSSSSSlJJJJKUkkkkpSSSSSlJJJJKUkkkkpSSSSSlJJJJKUkkkkpSSSSSlJJJJKUkkkkpSSSSSn/0vVUkkklKSSSSUpJJJJSkkkklKSSSSUpJJJJSkkkklKSSSSUpJJJJSkkkklKSSSSUpJJJJSkkkklKSSSSUpJJJJSkkkklKSSSSUpJJJJSkkkklKSSSSUpJJJJSkkkklKSSSSUpJJJJSkkkklKSSSSUpJJJJSkkkklKSSSSUpJJJJSkkkklKSSSSUpJJJJSkkkklKSSSSUpJJJJSkkkklKSSSSUpJJJJSkkkklKSSSSUpJJJJSkkkklKSSSSUpJJJJSkkkklKSSSSUpJJJJSkkkklKSSSSUpJJJJSkkkklKSSSSUpJJJJSkkkklP/2Q==;labelBorderColor=#333333;imageBorder=default;imageBackground=none;container=0;" vertex="1" parent="JKlWLX4_EkVpfZ8GCWLw-44">
          <mxGeometry x="329.5452229299363" y="20" width="464.9971566878981" height="165.38898869808918" as="geometry" />
        </mxCell>
        <mxCell id="JKlWLX4_EkVpfZ8GCWLw-39" value="" style="shape=image;verticalLabelPosition=bottom;labelBackgroundColor=default;verticalAlign=top;aspect=fixed;imageAspect=0;image=data:image/png,iVBORw0KGgoAAAANSUhEUgAAAIAAAACACAYAAADDPmHLAAAACXBIWXMAAAsTAAALEwEAmpwYAAANVklEQVR4nO1da6xfRREfEOqj1RZRkFK4FBWtzyqo4KONSOKLEvigmFRJE9SEoPGTURMIDR9aNeIzkkAxF4RCYmhuFWpJTcu9CGop1BcRpT6qpfgqtEi1pWhxfzm74Z8/5+yZmZ3z+N+7v+T3pb1nZnZ3/ufszszuEk1PnOp4veOjjo87rnNcKHh+oX/mcS9j3MvM6DnmOK5yPOD49BD/5jifIeNEx7+XPH/Ay55jbnVGMo5wvMhxNz174Ab5VYasr9fI2O11HWHaggw1znTcSvFBC7ybIe8epqytXndGR8Dr/BrH/xFvwMDtDLnbBfIOO37PccyoTRkMzHL8jOO/iD9QTTlA4L8dVzo+P715GTEsc/wDyQeoaQcI3EV5ftAIFjneQfqBacsBAicdF6c0OKPAix2/4fhfSh+UNh0AxNzku47Hq1s/g3G04ycd/0k2g9GFAwTudfyc43NVPTED8X7HB0nX2T903Bb5/1QH2OZ1aGx70LctowKvpGJJpenchxw/5OWsj/xdqgOs939zjuMDSlt/5Phadq/MAMxz/KLjQbJ5vbbhAEDKZ+oQFTGMlzDsmbY4koolE2L00g6MTbDacoCAlIkqEk2IaTyHYde0wlLHn5PuFTpJ8SVW2w4QkLJU/Y3jexm2jTwWUPHLRQhV2kncIEtXDhCQEqy6jWRp65HBC6gIlf6H5J0iDbN27QBASrj6SSo+KS9k6uo18GvF7HwnyTtCm2jpgwMEaBJWgUg7Y5J5pFBnb3A6FelXzavwPsd3KPX2yQECziB+mnmYiD28Xam3E5xAeq9/hNK9vo8OAIS34Z8j8uvehicn6G8c4buHOjrtd+9FBnb01QECZlMxpykrW6vjfv/s8wzsMMUFpJ/5ovjSquDyKMepiK5UB5jyOiyANq+L6IoRfX2BkR1JeLXjRtI1ArHx9xna8m7HX9botEgG/ZZsY/qw+xc1Oqu4xfENhrawgfDt1aSLfu1xvITsol8vd5xg6rbMBk543RZAX6BP9jB1DxJjgLGYZ2RLLY5z/L3CUMS/8Z0/xsgOrJOlOYSNDLmSaN5Bb4PVmh19gz46JLAhcIfjS43siOI7CuPQqYuM9GOFsIKKFYPUjosZ8j+ukPuIt8lqza4NK68x0h/FwwKDkKY911A31sOxfH+MNxJvgPA3a5U6rNfs6LuHBPp3GequhMQB8Fo6z0AncggYFG0OYblC53L/rFTfYW/rAoXOYaDvdgh0/8VAZy3WCAwK3ES6IgjE/y+nYv0r1Ym8w5VUrLu1mO1laHIY+73tmlJx9NUmhc5rFbrEwERD8loKfMrxW1Tkzzn4MOlyCKD1Zo0x0lcr7fRt4QB9gz56SqHnd9Rigclcx28rDUURxKVUHVB5E8WDOTFiCbfEsqFDWEL6otEp37YyoC/QJ48q5GIMMBZzLRvKBQJB2iJJBFQ+MCDrWNJX1mD9LKmseZXjzY6Pea71/8aBdSXT2VQfwKpiZ4GgYZxPutgAiPj6Fxz3KZ5FDuErxPd+bO1eSeWxgxCn4AZU5nrdTyrs3ufbHMtbxIi+Pp9pZ2tAkaQ2GaShpLpW8quV1umlVDNL2dtk0CAwEbHczTNMTHY+KLBnKenqD6V1eu9x/HVDbcbSEp+Olwns6Rxvdvwx2XVCKAGfxdSfUn84SEmdHiZz1jua7nU8i6m/l0CR5J9I3wFh4nQcU19K/WEVpXV6oVRcs0oKRMCts53Gr6Nido9vDr6bWGackCAPg4Jf7xMk64Q7Hd/I1JFSf8iltE5Pky6H46YmmDBWGDOcdYQx3ECCQByMLqtmxeB9ntI2OXJfywhpXiSQm1J/qKE05s8tFU8tC8fYYIzKfmiYnLOWujfXGGlRjfJWx5+WyA4l4NxZLjx9nPT1hytIn1mEzuuJ/2aMlcxZBLA4VVlrOYK46/nNjq9PMBivUSRcfuB4l+Nq4h3jBqQsOcN6f7D+sM06vfm+rWjz930fpKSRMQabmbbu4AisO2pt+FcgmaBZAK9TbdAJr9hYFc9JVLRHI1v62UqFZqK5myNY4gCBCKdKlmgapISdpXvzOfWFVWw6PBuWmv9Q2NaYAwRKgzQcpCypQlRPU8kboodlp4Z29WZEsOlXCntac4BAhGlfk9bWJE+Hs2BzikWNHOr0sCzTxPylwasqvIJsws2tOQAYJluaNGWKp6dOTqtwmuPtSpu0b8YwOdUcntG5AwRKUrX4pWgnYShSWcZpYCKWka4gBkRdIudtEM4+/qtST2MOgAnOXUrl91ORH4hhtUIuloKfpWYnoMOY5XVqlqGra2Sjj+5XyAUxNlsi/5/sAPiuwjsvJN0mR6yz31KhF3L3CmRhonUddXsO3/HeBkkgCm2siu8jQKaJRWAsLvRyr4n8nYkDBKDY8QoqoncSY7dU6D1GIANZxtM5jWkJ0sxn1eaYSYEMEH2PMRgsPG3NAQIQPEH4mJt2hYeX/QKOZTzbaYaMAW7ms6x4E23i/vrR1+jzk0rktO4AAXi1/4TZgLJ1eZ0D3ERFVrHvgI2Y7Ekd4KiaZwIxP3hXRH9nDgBwZ68aB/g0x/ie4FNk7wAoMuGspjp1gIDLahqTHeDZqHOAy5i6swP0ANkBIjKyA2QHyA5Q8kx2gJpnsgPwkB2gB8gOEJGRHSA7QHaAkmeyA9Q8kx2Ah+wAPUB2gIiM7ADZAbIDlDyTHaDmmewAPGQH6AGyA0RkZAfIDpAdoOSZ7AA1z2QH4CE7QA+QHSAiIztAdoDsACXPZAeoeSY7AA/ZAXqAGesAuSy8QBMOwN1k25kDVB38ZOUAeWNIwd5tDMH2pFsobw0D2twahj7vdGsYPP0Kkm8O3VyhN28OjW/tLmM4Vm/wzdi4A6RsD8cpmGdU6IXcxwSyRnV7ONpY9QbD/krNEbc4oewj1ML28NQDIqpuzAhYpZA7agdErKqRjT7SHhCBt9Cdkf8fiSNiblDqGYUjYnD8zdEMHb09IkbClEOicI1K3w6Jwjm7G5Q24XqcGXVIVD4mrqDVAZojc0zc8EVQFgj36WoOisQATKeDIlPejI06QD4q9hnOqKNi82HRz7Dtw6I1b0aWA7R1XDxWBR+j4vRNXPbwJccTmc+O8nHxaOOXfZvR9o8S/4ayMpgfF193c7bFhRFvc/xZiewQ2eLet9v1hRHjJL8wouw2FtxqtpQppwqcCyNu4gjCcqfsl9XmlTG4tVsS87e+oayOuMlrFK+MOY0rCBcMbfCCEIywuDRqJcnDnJPEvzQKQEfvFOqQUHpp1CLHO4Q6pDeUlSFcGoU3G944+NRobm9PhsVNXmX37cagvaEsRulNXuGOg5TLM6XO1jsgW9fExZHcT1AXF0dictrExZGSz03nwOsHUbgmr449V2BP1YSzjtKbvM6hZq+ORSTwZIE9rWO6XB4tvYo+Xx5NadfHT1Axc9VcH481/VVke308V9Zcr/uQwu59vs0TimfB3lwfbxmeTZk4Sa98x3IIa+I9njcSf4kkeZsMs2xC2+ewcyXmUbHM0CRo0OGXUnWCZrHjlEIuiIBK6g2cMSwh3VX0T/s2La6Qi75An+xRyMUYYCw0aXcVEPffoTT0m1T80jlIWT7imzyW0sghjJH+O7/Tt4UD9A36SPPDQpGKRfq7FtcpjNtEukAEQsKXUzH5kerE2v1KKuL8Wsz2MjR1evu97dyw9iDQV5sUOtcodInxsMAgvCnOM9CJNT2+2Zo1PcLKyxU6l/tnpfoOe1sXKHQOA30nedvuMtBZC4kD4LUkWbPX4SwqAiOaVzEGhRNVw9/UJcSqeK+30QroO0n9YSsOoPkEIB6+yEg/BmgF6TJ4FzPkf0IhN2QWrcK2mhwCeK2R/ii0k8Cwzq7aFCEF4vKIz0sKJjcy5Eo6/iDJcgR1CEUemthCa5NAAMvAq0m3ZsdS5xJKK4IYBCp8uAGV7Qx525myJiheXSQB+gJ9olkGYgwwFvOMbBGhzTq9OnACKhYO0IXdVewsEDQMTjVKFdc5nmpkBwIqsSBSqgNMka7CuAxo87qIrhgtqrLMYV2np8X6iJ5UB1hvYF+b9YedIKSDtXV6qUUQfXWAUByj2VQ7EungYaQUhNzn+E6l3j46AHZE3xORG+PIFYQMIqUkLHj9mFBnnxxgPunfhiNfEjYIbVEoKC0V74MDxErA62hRFNpbpNTpcUvFu3YAVCb/UdE+MLUsfGSgrdMDJ6k6rw505QDa8C1osTFk5GBdWRPQtgO0Wck0LRGr06vjE/7ZwVLxthwgxD32KuwOcY9Owrd9RUp1LRIhoeqmDQdACfgDSlsl1cwzEoizI96u6VzkJbZF/j/VAbZRf3If0xpN7LCxcAANpTuaMgZgsceuKwfo4vCMaYuUJVYXDjBJsl3NGUxw99l35QDScw0yFEgJszblACFc3es07XSDJtFi7QDahFWGIc503Eq8AbubIY+btt3qdWf0AOFs3boj7q5iyPpajYzdlL/zvQXCyjiNu6zcCmcdcc45wqelLD9xwMueY251hjlQcDlORZk19uLf6niK4PmF/pl9XsY42RWu9gr/B+4vaWkaNVzbAAAAAElFTkSuQmCC;container=0;" vertex="1" parent="JKlWLX4_EkVpfZ8GCWLw-44">
          <mxGeometry x="39.774267515923555" y="80.20000000000005" width="44.99972484076433" height="44.99972484076433" as="geometry" />
        </mxCell>
        <mxCell id="JKlWLX4_EkVpfZ8GCWLw-42" value="Frameworks" style="text;html=1;align=center;verticalAlign=middle;resizable=0;points=[];autosize=1;strokeColor=none;fillColor=none;fontSize=16;fontColor=#333333;container=0;" vertex="1" parent="JKlWLX4_EkVpfZ8GCWLw-44">
          <mxGeometry x="84.322101910828" y="85.20000000000005" width="110" height="35" as="geometry" />
        </mxCell>
        <mxCell id="JKlWLX4_EkVpfZ8GCWLw-1" value="" style="rounded=0;whiteSpace=wrap;html=1;fillColor=#f5f5f5;fontColor=#333333;strokeColor=#666666;" vertex="1" parent="1">
          <mxGeometry x="20" y="45" width="430" height="65" as="geometry" />
        </mxCell>
        <mxCell id="JKlWLX4_EkVpfZ8GCWLw-5" value="&amp;nbsp;USUÃRIOS&amp;nbsp;" style="text;html=1;align=left;verticalAlign=middle;resizable=0;points=[];autosize=1;strokeColor=none;fillColor=none;fontStyle=1;labelBackgroundColor=none;fontSize=16;spacing=1;rounded=0;" vertex="1" parent="1">
          <mxGeometry x="20" y="43" width="110" height="35" as="geometry" />
        </mxCell>
        <mxCell id="JKlWLX4_EkVpfZ8GCWLw-20" value="" style="rounded=0;whiteSpace=wrap;html=1;fillColor=#f5f5f5;fontColor=#333333;strokeColor=#666666;" vertex="1" parent="1">
          <mxGeometry x="20" y="315" width="430" height="65" as="geometry" />
        </mxCell>
        <mxCell id="JKlWLX4_EkVpfZ8GCWLw-21" value="SUPORTE&amp;nbsp;" style="text;html=1;align=left;verticalAlign=middle;resizable=0;points=[];autosize=1;strokeColor=none;fillColor=none;fontStyle=1;labelBackgroundColor=none;fontSize=16;spacing=1;rounded=0;" vertex="1" parent="1">
          <mxGeometry x="25" y="313" width="100" height="35" as="geometry" />
        </mxCell>
      </root>
    </mxGraphModel>
  </diagram>
</mxfile>
